<svg width="140" height="139" viewBox="0 0 140 139" fill="none" xmlns="http://www.w3.org/2000/svg">
<g clip-path="url(#clip0_757_603)">
<path d="M70.0001 87.2895C79.9872 87.2895 88.0834 79.3428 88.0834 69.54C88.0834 59.7372 79.9872 51.7905 70.0001 51.7905C60.0129 51.7905 51.9167 59.7372 51.9167 69.54C51.9167 79.3428 60.0129 87.2895 70.0001 87.2895Z" stroke="white" stroke-width="12" stroke-miterlimit="10" stroke-linecap="round" stroke-linejoin="round"/>
<path d="M70.0001 107.902C91.5852 107.902 109.083 90.7267 109.083 69.54C109.083 48.3533 91.5852 31.1781 70.0001 31.1781C48.415 31.1781 30.9167 48.3533 30.9167 69.54C30.9167 90.7267 48.415 107.902 70.0001 107.902Z" stroke="white" stroke-width="6" stroke-miterlimit="10" stroke-linecap="round" stroke-linejoin="round"/>
<path d="M69.9999 124.735C101.057 124.735 126.233 100.024 126.233 69.54C126.233 39.0565 101.057 14.3447 69.9999 14.3447C38.9431 14.3447 13.7666 39.0565 13.7666 69.54C13.7666 100.024 38.9431 124.735 69.9999 124.735Z" stroke="white" stroke-width="3" stroke-miterlimit="10" stroke-linecap="round" stroke-linejoin="round"/>
<path d="M69.9999 137.675C108.338 137.675 139.417 107.17 139.417 69.54C139.417 31.9099 108.338 1.40472 69.9999 1.40472C31.6622 1.40472 0.583252 31.9099 0.583252 69.54C0.583252 107.17 31.6622 137.675 69.9999 137.675Z" stroke="white" stroke-miterlimit="10" stroke-linecap="round" stroke-linejoin="round"/>
</g>
<defs>
<clipPath id="clip0_757_603">
<rect width="140" height="137.416" fill="white" transform="translate(0 0.832153)"/>
</clipPath>
</defs>
</svg>
