<svg width="115" height="130" viewBox="0 0 115 130" fill="none" xmlns="http://www.w3.org/2000/svg">
<g clip-path="url(#clip0_757_635)">
<path d="M57.572 30.8853C81.3204 30.8853 100.751 49.7571 100.751 73.1357C100.751 96.5142 81.4643 115.386 57.572 115.386C33.6796 115.386 14.393 96.5142 14.393 73.1357C14.393 49.7571 33.6796 30.8853 57.572 30.8853ZM57.572 16.8019C25.7635 16.8019 0 42.0112 0 73.1357C0 104.26 25.7635 129.469 57.572 129.469C89.3805 129.469 115.144 104.26 115.144 73.1357C115.144 42.0112 89.2365 16.8019 57.572 16.8019Z" fill="white"/>
<path d="M28.6421 76.0932H23.6046C21.8774 76.0932 20.582 74.8256 20.582 73.1356C20.582 71.4456 21.8774 70.1781 23.6046 70.1781H28.6421C30.3693 70.1781 31.6646 71.4456 31.6646 73.1356C31.6646 74.8256 30.3693 76.0932 28.6421 76.0932Z" fill="white"/>
<path d="M91.3955 76.0932H86.358C84.6308 76.0932 83.3354 74.8256 83.3354 73.1356C83.3354 71.4456 84.6308 70.1781 86.358 70.1781H91.3955C93.1227 70.1781 94.418 71.4456 94.418 73.1356C94.418 74.8256 92.9787 76.0932 91.3955 76.0932Z" fill="white"/>
<path d="M34.9751 55.2497L31.5208 51.8697C30.3694 50.743 30.3694 48.7713 31.5208 47.6446C32.6722 46.518 34.6873 46.518 35.8387 47.6446L39.293 51.0247C40.4445 52.1513 40.4445 54.123 39.293 55.2497C38.1416 56.3764 36.1266 56.3764 34.9751 55.2497Z" fill="white"/>
<path d="M79.3056 98.6267L75.7073 95.2467C74.5559 94.12 74.5559 92.1483 75.7073 91.0216C76.8588 89.895 78.8738 89.895 80.0252 91.0216L83.4796 94.4017C84.631 95.5283 84.631 97.5 83.4796 98.6267C82.472 99.7534 80.457 99.7534 79.3056 98.6267Z" fill="white"/>
<path d="M54.5493 44.9688V40.0396C54.5493 38.3495 55.8447 37.082 57.5718 37.082C59.299 37.082 60.5944 38.3495 60.5944 40.0396V44.9688C60.5944 46.6588 59.299 47.9263 57.5718 47.9263C55.8447 47.9263 54.5493 46.5179 54.5493 44.9688Z" fill="white"/>
<path d="M54.5493 106.232V99.8942C54.5493 98.2042 55.8447 96.9366 57.5718 96.9366C59.299 96.9366 60.5944 98.2042 60.5944 99.8942V106.232C60.5944 107.922 59.299 109.189 57.5718 109.189C55.8447 109.189 54.5493 107.922 54.5493 106.232Z" fill="white"/>
<path d="M75.7073 51.0247L79.1617 47.6446C80.3131 46.518 82.3281 46.518 83.4796 47.6446C84.631 48.7713 84.631 50.743 83.4796 51.8697L80.0252 55.2497C78.8738 56.3764 76.8588 56.3764 75.7073 55.2497C74.5559 54.123 74.5559 52.2922 75.7073 51.0247Z" fill="white"/>
<path d="M31.5208 94.4017L34.9752 91.0216C36.1266 89.895 38.1416 89.895 39.2931 91.0216C40.4445 92.1483 40.4445 94.12 39.2931 95.2467L35.8387 98.6267C34.6873 99.7534 32.6723 99.7534 31.5208 98.6267C30.2255 97.5 30.2255 95.5283 31.5208 94.4017Z" fill="white"/>
<path d="M57.5718 21.7311V73.1356L101.47 44.5463C101.47 44.5463 78.5855 22.8578 57.5718 21.7311Z" fill="white"/>
<path d="M72.253 20.6044H40.1566C34.5434 20.6044 30.0815 16.2385 30.0815 10.746C30.0815 5.25344 34.5434 0.887573 40.1566 0.887573H72.253C77.8663 0.887573 82.3281 5.25344 82.3281 10.746C82.3281 16.2385 77.8663 20.6044 72.253 20.6044Z" fill="white"/>
</g>
<defs>
<clipPath id="clip0_757_635">
<rect width="115" height="128.582" fill="white" transform="translate(0 0.887573)"/>
</clipPath>
</defs>
</svg>
