<svg width="343" height="64" viewBox="0 0 343 64" fill="none" xmlns="http://www.w3.org/2000/svg">
<g clip-path="url(#clip0_15_892)">
<path d="M323.656 0C315.074 0 307.646 3.59038 307.646 7.57968V25.1326H320.52C332.734 25.1326 342.306 20.3455 342.306 11.7685C342.471 2.79252 332.734 0 323.656 0Z" fill="#CAD300"/>
<path d="M259.618 24.1352H305.336C301.705 13.5635 288.006 7.97852 270.841 7.97852H249.88V36.5021C249.88 40.0924 253.511 43.4834 258.958 45.6775V24.1352H259.618Z" fill="#B81179"/>
<path d="M260.278 46.4754C264.57 48.0711 270.016 49.0684 275.793 49.0684C290.317 49.0684 306.161 44.6802 306.161 29.7203C306.161 28.324 305.996 27.1272 305.666 25.9304H260.278V46.4754Z" fill="#B81179"/>
<path d="M41.5915 31.7151H36.4751V62.2333H41.5915V31.7151Z" fill="#1D1D1B"/>
<path d="M212.91 59.0418V62.2333H190.134V31.7151H211.26V34.9065H195.085V44.6803H208.949V47.8718H195.085V59.0418H212.91Z" fill="#1D1D1B"/>
<path d="M232.551 45.6777L232.386 45.4782L243.114 31.7151H238.327L230.075 42.2868L221.988 31.7151H216.046L227.269 46.4755H227.104L215.386 62.2333H220.007L229.58 49.667L238.822 62.2333H244.929L232.551 45.6777Z" fill="#1D1D1B"/>
<path d="M64.3679 34.1087C57.601 34.1087 53.3098 39.2948 53.3098 46.8745C53.3098 55.6509 58.4263 59.6403 64.3679 59.6403C71.2999 59.6403 75.261 54.4542 75.261 46.675C75.261 39.8932 71.795 34.1087 64.3679 34.1087ZM64.3679 63.0312C54.6302 63.2306 47.8633 56.8477 47.8633 47.2734C47.8633 38.6964 53.4749 30.9172 64.2029 30.9172C75.261 30.7178 80.5425 38.6964 80.5425 46.675C80.5425 55.8504 74.4358 63.0312 64.3679 63.0312Z" fill="#1D1D1B"/>
<path d="M133.358 34.1087C126.591 34.1087 122.3 39.2948 122.3 46.8745C122.3 55.6509 127.416 59.6403 133.358 59.6403C140.29 59.6403 144.251 54.4542 144.251 46.675C144.251 39.8932 140.785 34.1087 133.358 34.1087ZM133.358 63.0312C123.62 63.2306 116.853 56.8477 116.853 47.2734C116.853 38.6964 122.465 30.9172 133.193 30.9172C144.251 30.7178 149.532 38.6964 149.532 46.675C149.532 55.8504 143.426 63.0312 133.358 63.0312Z" fill="#1D1D1B"/>
<path d="M114.377 35.3055C111.572 32.513 107.61 30.9172 102.164 30.9172C90.7757 30.9172 84.999 38.4969 84.999 47.0739C84.999 56.6483 92.096 63.0312 102.164 63.0312C107.28 63.0312 111.572 61.4354 114.872 58.6429L112.397 56.0499C109.756 58.0445 106.95 59.6402 103.154 59.6402C96.0571 59.6402 90.2805 55.4515 90.2805 46.8745C90.2805 39.2948 94.9018 34.1087 102.329 34.1087C106.455 34.1087 109.261 35.3055 111.406 37.4996L114.377 35.3055Z" fill="#1D1D1B"/>
<path d="M168.842 58.6429C167.027 59.0419 164.386 59.0419 163.231 59.0419H159.765V41.09C159.765 39.6937 160.095 37.8985 161.25 36.7017C162.901 34.9065 165.707 34.1087 168.842 34.1087C174.124 34.1087 179.24 37.8985 179.24 45.6777C179.24 54.6536 173.464 57.6456 168.842 58.6429ZM168.347 30.9172C162.901 30.9172 157.454 33.7098 155.804 36.9012C154.813 38.6964 154.648 40.8905 154.648 42.2868V62.2333H164.881C166.367 62.2333 168.677 62.0338 170.163 61.8344C178.58 60.4381 184.687 54.8531 184.687 45.6777C184.687 34.3081 176.27 30.9172 168.347 30.9172Z" fill="#1D1D1B"/>
<path d="M18.6502 58.8424C17.825 59.0419 16.3396 59.0419 15.3493 59.0419H5.11644V42.0873C5.11644 39.8932 5.28148 37.6991 7.09699 36.1033C8.74746 34.7071 11.2232 33.9092 14.359 33.9092C18.4852 33.9092 22.2813 36.3028 22.2813 39.4943C22.2813 41.6884 20.6308 43.683 16.8347 44.2814C16.1746 44.2814 14.6891 44.4809 13.8639 44.4809H7.42709V47.6723H15.0192C15.6794 47.6723 17.1648 47.6723 17.825 47.8718C21.9512 48.2707 24.0968 50.2654 24.0968 53.2574C23.9317 55.8504 22.4463 58.0445 18.6502 58.8424ZM22.9415 45.4782C25.7472 44.082 27.0676 42.0873 27.0676 39.2948C27.0676 33.9092 21.6211 30.7178 13.8639 30.7178C9.07755 30.7178 4.78634 32.3135 2.31064 34.9065C0.660179 36.5023 0.165039 38.4969 0.165039 42.0873V62.0338H5.28148H16.1746C17.825 62.0338 19.9706 61.8344 21.291 61.4354C25.9123 60.2387 29.0482 57.2467 29.0482 53.0579C28.8831 49.8665 27.0676 47.2734 22.9415 45.4782Z" fill="#1D1D1B"/>
</g>
<defs>
<clipPath id="clip0_15_892">
<rect width="342.472" height="63.0311" fill="white"/>
</clipPath>
</defs>
</svg>
