<svg width="305" height="291" viewBox="0 0 305 291" fill="none" xmlns="http://www.w3.org/2000/svg">
<path d="M269.121 2H35.9945C17.1842 2 2 17.7972 2 37.1917V54.2401V188.438V286.74L62.888 223.708H269.121C287.932 223.708 303.116 207.989 303.116 188.516V37.1917C303.116 17.7972 287.932 2 269.121 2Z" fill="white" stroke="#EB2027" stroke-width="3" stroke-miterlimit="10"/>
<g clip-path="url(#clip0_772_2110)">
<path d="M228.153 90.8835C228.315 91.0453 228.315 91.207 228.477 91.3688C228.153 91.207 227.505 90.8835 227.667 90.7218C227.829 90.7218 228.315 90.8835 228.477 91.0453C228.315 91.0453 228.315 90.8835 228.315 90.8835L228.477 91.0453C228.638 91.0453 227.991 90.7218 228.477 90.7218C228.477 90.7218 228.962 90.7218 228.8 90.56C228.477 90.56 227.991 90.3983 227.505 90.3983V90.2365H227.667H227.505C227.829 90.2365 228.153 90.3983 228.477 90.3983C228.315 90.3983 228.315 90.3983 228.153 90.3983C228.315 90.3983 228.477 90.3983 228.477 90.3983C228.153 90.3983 228.477 90.2365 228.153 90.3983C227.991 90.2365 228.153 90.2365 228.153 90.2365C227.991 90.2365 227.667 90.2365 227.505 90.2365V90.0747C227.505 89.913 227.667 89.913 227.667 89.7512C227.829 89.7512 227.829 89.5895 227.991 89.5895H227.829C228.153 89.4277 227.829 89.7512 228.315 89.5895C228.153 89.5895 227.991 89.5895 227.829 89.4277C227.505 89.5895 227.829 89.5895 227.991 89.5895C227.829 89.5895 227.667 89.5895 227.505 89.5895C227.505 89.4277 227.505 89.266 227.343 89.1042C227.343 88.9425 227.181 88.7807 227.343 88.619H227.181C227.181 88.4572 227.02 88.2955 226.858 88.1337C226.858 88.1337 226.858 88.1337 226.696 87.972C226.696 87.972 226.696 87.972 226.858 87.8102H226.696L226.858 87.6485L226.696 87.8102C226.696 87.8102 226.696 87.8102 226.534 87.8102C226.534 87.8102 226.534 87.8102 226.372 87.8102C226.048 87.4867 225.563 87.325 224.915 87.325C224.915 87.1632 224.915 87.1632 224.915 87.0015C224.753 87.4867 224.753 86.1927 224.429 87.0015C224.429 86.8397 224.429 86.8397 224.429 86.678C224.429 87.0015 224.267 87.0015 224.267 86.8397C223.944 86.8397 223.782 86.678 223.458 86.678V87.0015L223.296 86.8397C223.296 87.325 223.458 86.8397 223.458 87.325C223.296 86.8397 222.972 87.4867 222.81 86.8397C222.649 86.8397 222.972 87.1632 222.81 87.1632V87.0015V87.1632C222.81 87.1632 222.649 87.0015 222.487 86.8397C222.325 86.678 222.325 87.0015 222.163 87.0015H222.325C222.163 87.325 221.677 87.325 221.677 87.8102L221.839 87.972C221.839 88.2955 221.677 87.972 221.515 88.2955C221.515 88.4572 221.515 88.4572 221.515 88.4572C221.515 88.2955 221.192 88.2955 221.192 88.1337C221.192 88.4572 221.192 88.2955 221.515 88.7807L221.353 87.972C221.515 88.1337 221.515 88.1337 221.515 88.2955C221.353 88.1337 221.192 88.1337 221.03 87.972C220.544 87.972 221.192 88.4572 220.544 88.2955C221.03 88.619 221.03 88.2955 221.03 88.2955C221.192 88.2955 221.353 88.619 221.353 88.619C221.353 88.619 220.706 88.4572 220.544 88.619C220.382 88.619 220.706 88.7807 220.382 88.7807C220.706 88.9425 220.382 88.9425 220.706 88.9425V88.7807C220.706 88.9425 221.353 89.1042 221.03 89.266L220.868 89.1042C220.706 89.1042 220.868 89.266 220.868 89.266C220.382 89.1042 220.868 89.1042 220.544 88.7807C220.382 88.7807 220.868 89.1042 220.382 88.9425C221.03 89.266 220.22 89.1042 220.706 89.4277H220.382L220.544 89.5895L220.22 89.4277C220.544 89.5895 219.896 89.5895 220.058 89.7512C220.058 89.4277 220.382 89.7512 220.544 89.5895C220.868 89.913 219.896 89.7512 219.896 90.0747C219.896 90.0747 220.058 89.913 220.22 89.913C220.22 89.913 220.058 90.0747 219.896 90.0747C219.896 90.3983 220.22 90.0747 220.382 90.0747C220.058 90.2365 220.544 90.2365 220.706 90.2365H220.382C220.22 90.56 221.03 90.2365 220.868 90.3983H220.544L220.706 90.56H220.382C220.706 90.7218 220.544 90.7218 220.544 90.8835C220.706 90.8835 221.03 90.7218 221.03 90.8835C220.868 91.0453 220.706 90.8835 220.868 91.0453C220.706 91.0453 220.382 91.0453 220.706 90.8835H220.382C220.22 91.0453 220.382 91.207 220.382 91.207C220.382 91.207 220.382 91.207 220.382 91.0453C220.544 91.0453 220.706 91.0453 220.868 91.207C220.868 91.207 220.706 91.207 220.544 91.207H220.706C220.544 91.207 220.22 91.3688 220.058 91.3688L220.382 91.5305C220.382 91.5305 220.22 91.6923 220.058 91.6923C220.058 91.854 220.22 91.854 220.382 91.854H220.22C220.22 92.0158 220.382 91.854 220.382 91.854C220.544 91.854 220.706 91.854 220.544 92.0158C220.544 92.0158 220.544 92.0158 220.706 92.0158C220.706 92.1775 220.706 92.501 221.03 92.501L220.868 92.8245C221.03 92.8245 221.192 92.3393 221.353 92.501C221.515 92.501 221.192 92.8245 221.192 92.9863C221.192 92.9863 221.353 92.9863 221.353 92.8245V92.9863C221.03 93.148 221.03 92.9863 220.868 93.3098C221.353 92.6628 221.353 93.6333 221.839 92.9863V93.148C221.839 93.6333 222.325 92.6628 222.325 92.9863C222.325 92.9863 222.325 93.148 222.325 93.3098L222.487 93.148V93.3098H222.649L222.972 92.9863C222.972 93.148 222.972 92.9863 222.972 93.148L223.134 92.9863C223.134 93.148 222.972 93.3098 222.972 93.3098C222.81 94.1185 223.134 93.148 223.296 93.6333H223.134C223.134 94.1185 223.296 93.9568 223.296 94.2803C223.296 94.1185 223.134 93.4715 223.296 93.3098C223.296 93.3098 223.296 93.4715 223.458 93.3098C223.458 93.6333 223.458 93.6333 223.62 93.4715V93.795C223.782 93.6333 223.782 93.4715 223.782 93.3098C223.944 93.3098 223.944 93.6333 223.944 93.9568C224.106 93.9568 223.944 93.4715 224.106 93.4715C224.267 93.6333 224.267 93.4715 224.591 93.3098C224.753 93.4715 224.591 93.4715 224.591 93.6333L224.753 93.3098V93.4715C224.753 93.3098 224.753 93.148 224.915 92.9863C224.915 92.501 225.077 93.6333 225.239 93.148C225.239 93.3098 225.239 93.3098 225.239 93.4715C225.239 93.4715 225.239 93.3098 225.401 93.3098V93.148V92.8245L225.563 92.9863C225.401 92.6628 225.401 92.501 225.563 92.1775V92.501C225.563 92.6628 225.563 92.8245 225.563 92.9863L225.077 92.8245C225.077 92.9863 225.077 93.3098 225.077 93.4715C225.077 93.4715 225.077 93.4715 225.077 93.3098V93.4715V93.3098L225.239 93.6333V93.4715L225.563 93.6333C225.563 93.148 225.563 92.501 225.724 92.3393C225.724 92.6628 225.886 92.8245 226.048 93.148C225.886 92.8245 225.886 93.3098 225.724 93.3098L225.886 93.4715L226.048 92.9863C226.21 93.3098 226.21 93.148 226.21 93.3098C225.886 92.8245 226.21 92.8245 226.21 92.6628C226.372 92.8245 226.372 92.9863 226.21 92.9863C226.534 93.3098 226.048 92.3393 226.372 92.501C226.372 92.501 226.372 92.501 226.372 92.6628C226.372 92.501 226.534 92.501 226.534 92.6628C226.696 92.6628 227.02 92.3393 226.696 92.0158L227.181 92.501C227.02 92.1775 226.696 91.854 226.534 91.5305C226.858 91.854 227.181 92.0158 227.181 92.3393L226.696 91.854L227.343 92.6628C227.181 92.501 227.181 92.3393 227.343 92.3393C227.343 92.3393 227.343 92.3393 227.343 92.501C227.343 92.501 227.505 92.501 227.505 92.3393C227.505 92.3393 227.02 92.0158 227.02 91.854C227.505 92.0158 227.181 92.0158 227.667 92.0158C227.505 92.0158 227.02 91.5305 227.181 91.5305C227.181 91.5305 227.667 91.854 227.667 92.0158C227.505 91.854 227.343 91.6923 227.181 91.5305C227.181 91.6923 227.667 91.854 227.829 91.854C227.667 91.854 227.991 91.6923 227.829 91.6923H227.667C227.829 91.5305 227.02 91.0453 227.02 90.8835C227.181 90.8835 227.667 91.3688 227.829 91.207C227.667 91.0453 227.343 90.8835 226.858 90.56V90.3983C227.181 90.56 227.667 90.8835 227.829 91.0453C227.991 91.0453 227.991 91.0453 228.153 91.0453C228.315 91.0453 228.315 91.207 228.315 91.207L228.477 91.0453C228.477 91.207 228.477 91.0453 228.153 90.8835ZM225.239 93.148C225.239 93.148 225.401 93.148 225.239 93.148C225.401 93.148 225.401 93.3098 225.239 93.148ZM221.353 93.3098C221.515 93.3098 221.515 93.3098 221.515 93.4715C221.515 93.3098 221.515 93.3098 221.353 93.3098ZM222.972 93.795C222.972 93.6333 222.972 93.6333 222.972 93.795C222.81 93.9568 222.972 93.795 222.972 93.795Z" fill="#EE4043"/>
<path d="M227.829 88.457C227.829 88.457 227.667 88.457 227.667 88.6188L227.829 88.457Z" fill="#EE4043"/>
<path d="M228.153 88.6188C227.991 88.6188 227.991 88.457 227.829 88.6188C227.991 88.6188 228.153 88.7805 228.153 88.6188Z" fill="#EE4043"/>
<path d="M228.314 91.692C228.153 91.5303 228.153 91.692 227.991 91.692C227.991 91.8538 227.991 91.8538 228.314 92.0155C228.638 91.8538 228.153 91.692 228.314 91.692Z" fill="#EE4043"/>
<path d="M220.544 93.4714C220.544 93.4714 220.706 93.4714 220.706 93.6332C220.544 93.4714 220.868 93.1479 220.544 93.4714Z" fill="#EE4043"/>
<path d="M237.381 85.3838C237.219 85.3838 237.381 85.5455 237.381 85.7073V85.3838Z" fill="#EF7D6B"/>
<path d="M244.018 89.104L243.856 89.2657C243.532 88.9422 243.694 88.457 243.046 88.2952L242.884 88.457C242.561 88.457 242.884 88.1335 242.722 87.9717C242.561 87.9717 242.399 87.9717 242.399 87.9717C242.561 87.9717 242.561 87.6482 242.884 87.4865C242.399 87.4865 242.561 87.4865 242.075 87.81L242.237 87.6482C242.075 87.9717 241.913 87.9717 241.913 87.9717C242.075 87.81 242.075 87.6482 242.399 87.4865C242.561 86.8395 241.751 87.81 242.075 86.8395C241.589 87.3247 242.075 87.3247 241.913 87.4865C241.751 87.81 241.427 87.9717 241.427 87.81C241.427 87.81 241.913 86.8395 241.589 86.8395C241.589 86.6777 241.265 87.0012 241.427 86.6777C241.265 87.0012 241.265 86.6777 241.104 87.163H241.265C241.104 87.3247 240.78 87.81 240.78 87.4865C240.78 87.3247 240.942 87.163 240.942 87.163C240.942 87.0012 240.78 87.163 240.78 87.0012C240.942 86.516 241.104 87.0012 241.427 86.6777C241.427 86.3542 240.942 87.0012 241.265 86.3542C240.942 87.0012 241.104 86.1925 240.78 86.6777L240.942 86.3542L240.78 86.516L240.942 86.0307C240.78 86.3542 240.78 85.5455 240.618 85.7072C240.942 85.7072 240.618 86.1925 240.618 86.3542C240.132 86.6777 240.618 85.3837 240.132 85.5455C240.132 85.5455 240.294 85.7072 240.132 85.869C240.132 85.869 239.97 85.7072 239.97 85.3837C239.647 85.3837 239.97 85.7072 239.809 86.0307C239.809 85.5455 239.647 86.1925 239.647 86.3542V86.0307C239.323 85.869 239.647 86.6777 239.323 86.516L239.485 86.0307L239.323 86.1925V85.7072C239.161 86.0307 239.161 85.869 238.999 85.869C238.999 86.0307 238.999 86.516 238.999 86.516C238.837 86.3542 238.999 86.1925 238.837 86.1925C238.837 86.0307 238.837 85.7072 238.999 86.0307V85.7072C238.837 85.3837 238.837 85.7072 238.675 85.7072C238.675 85.869 238.513 86.0307 238.513 86.1925C238.513 86.0307 238.513 85.869 238.513 85.869C238.513 85.869 238.513 86.0307 238.352 86.1925C238.352 85.869 238.19 85.5455 238.352 85.3837L238.19 85.7072C238.19 85.5455 238.028 85.3837 238.028 85.222C237.866 85.0602 237.866 85.869 237.542 85.7072V85.869C237.38 85.869 237.056 85.7072 237.056 86.1925L236.571 85.869C236.571 86.0307 237.056 86.3542 236.895 86.6777C236.895 87.0012 236.571 86.3542 236.409 86.3542C236.409 86.6777 236.733 87.163 236.247 87.0012C236.247 86.6777 236.409 86.6777 236.409 86.516L236.085 86.3542C235.923 85.869 236.085 85.869 235.761 85.7072C236.409 86.516 235.276 86.1925 236.085 87.0012H235.923C235.438 86.8395 236.409 87.6482 236.085 87.6482C235.923 87.6482 235.761 87.6482 235.761 87.4865L235.923 87.81C235.923 87.81 235.761 87.81 235.761 87.6482V87.9717L236.085 88.2952C235.923 88.2952 236.085 88.2952 235.923 88.1335L236.085 88.2952C235.761 88.2952 235.599 87.9717 235.761 87.9717C234.79 87.6482 235.923 88.1335 235.276 88.1335V87.9717C234.79 87.81 234.79 87.9717 234.466 87.9717C234.628 87.9717 235.438 87.9717 235.599 88.2952C235.599 88.2952 235.438 88.2952 235.599 88.457C235.276 88.2952 235.276 88.457 235.276 88.457L234.79 88.2952C234.952 88.457 235.114 88.457 235.276 88.6187C235.276 88.7805 234.79 88.6187 234.466 88.6187C234.304 88.7805 235.114 88.6187 235.114 88.9422C234.952 89.104 235.114 89.2657 235.276 89.4275C235.114 89.4275 234.952 89.4275 234.79 89.4275L235.114 89.5892H234.952C235.114 89.751 235.438 89.5892 235.599 89.751C236.085 89.751 234.79 89.9127 235.438 90.0745C235.276 90.0745 235.114 90.0745 234.952 90.0745C235.114 90.2362 235.114 90.0745 235.114 90.2362H235.276L235.761 90.398L235.438 90.5597C235.761 90.5597 236.247 90.5597 236.571 90.5597H236.733C236.733 90.5597 236.733 90.5597 236.733 90.7215C236.571 90.7215 236.409 90.7215 236.247 90.7215H236.571C236.247 90.7215 235.923 90.7215 235.599 90.7215H235.761H235.599C235.599 90.7215 235.599 90.7215 235.761 90.7215H235.276H235.438C235.276 90.8832 235.276 90.8832 235.114 91.045C235.599 91.2067 236.409 91.2067 236.733 91.3685C236.409 91.3685 236.085 91.5302 235.599 91.692C236.085 91.5302 235.438 91.5302 235.438 91.3685C235.438 91.3685 235.276 91.5302 235.114 91.5302C235.276 91.5302 235.438 91.692 235.599 91.692C235.276 91.692 235.276 91.8537 235.276 91.8537C235.923 91.692 235.761 91.8537 236.085 91.8537C235.923 92.0155 235.599 92.0155 235.599 91.8537C235.114 92.1772 236.409 91.692 236.085 92.0155C236.085 92.0155 236.085 92.1772 235.923 92.1772C235.923 92.5007 236.247 92.8242 236.733 92.5007L235.923 92.986C236.085 92.8242 236.409 92.8242 236.571 92.6625C236.247 92.8242 236.085 92.986 235.761 93.1478C236.085 92.986 236.085 92.986 236.085 93.1478L236.733 92.6625C236.895 92.5007 237.056 92.5007 237.38 92.339C236.895 92.6625 236.409 93.1478 236.085 93.1478C236.085 93.3095 236.085 93.3095 236.247 93.3095C236.247 93.3095 236.733 92.8242 236.895 92.8242C236.409 93.3095 236.733 93.1478 236.409 93.4713C236.409 93.3095 237.056 92.8242 237.218 92.8242C237.056 92.8242 236.571 93.4713 236.571 93.4713C236.733 93.3095 237.056 93.1478 237.218 92.986C237.056 92.986 236.733 93.4713 236.571 93.633C236.733 93.4713 236.733 93.7948 236.895 93.7948V93.633C237.056 93.7948 237.866 92.8242 237.866 92.986C237.704 93.1478 237.218 93.7948 237.218 93.9565C237.38 93.7948 237.704 93.3095 238.19 92.8242C238.19 92.8242 238.352 92.8242 238.352 92.986C238.028 93.4713 237.542 93.9565 237.38 94.1183C237.38 94.28 237.218 94.28 237.38 94.4418C237.38 94.6035 237.218 94.6035 237.056 94.6035L237.218 94.927C237.542 94.4418 237.704 94.6035 237.866 94.28C237.704 94.4418 237.542 94.4418 237.38 94.6035C237.704 94.1183 238.19 93.4713 238.352 93.633C238.352 93.7948 237.866 94.4418 237.866 94.6035C238.028 94.4418 238.19 94.4418 238.19 94.4418L238.028 94.6035C238.028 94.7653 238.513 94.1183 238.352 94.6035C238.352 94.6035 238.352 95.2505 238.352 94.927C238.352 94.6035 238.675 93.7948 238.837 93.1478C238.837 93.1478 238.837 93.1478 238.999 93.1478V93.3095V93.1478C238.999 93.1478 238.999 93.1478 239.161 93.1478C239.161 93.633 238.837 94.1183 238.837 94.4418C238.837 94.28 238.999 94.1183 238.999 94.1183C238.999 94.28 238.837 94.6035 238.999 94.4418C239.161 93.9565 239.161 94.4418 239.161 93.9565C239.323 93.7948 239.161 94.1183 239.323 94.1183C239.323 93.7948 239.485 93.4713 239.647 93.1478V93.3095C239.808 93.3095 239.809 93.633 239.97 93.633C239.97 93.7948 240.132 93.9565 239.97 94.1183C239.97 93.9565 239.97 93.7948 240.132 93.7948C240.294 94.28 239.97 93.7948 240.132 94.4418C240.132 94.1183 240.294 93.9565 240.294 93.7948C240.294 93.3095 240.132 93.7948 240.132 93.9565C240.132 93.7948 240.132 93.4713 240.132 93.3095C240.294 93.3095 240.456 93.3095 240.618 93.3095C240.78 93.4713 240.942 93.3095 241.265 93.4713C241.265 93.3095 241.265 93.3095 241.265 93.1478C241.427 93.1478 241.751 92.986 241.913 92.8242C241.913 92.8242 241.913 92.986 242.075 92.986V93.1478V92.986V92.8242C242.075 92.8242 242.075 92.8242 242.237 92.8242C242.561 92.5007 242.884 92.0155 242.884 91.3685C243.208 91.3685 243.37 91.3685 243.694 91.5302C243.046 91.3685 244.665 91.5302 243.856 91.045C244.018 91.045 244.018 91.045 244.179 91.045C243.856 90.8832 243.856 90.8832 244.018 90.7215C244.018 90.398 244.341 90.2362 244.503 89.9127H244.179L244.341 89.751C243.856 89.751 244.341 89.9127 243.694 89.9127C244.341 89.751 243.694 89.4275 244.503 89.2657C244.503 89.104 244.179 89.4275 244.018 89.2657H244.179H243.856C243.856 89.104 244.179 89.104 244.341 89.104C244.503 89.2657 244.018 89.104 244.018 89.104ZM235.599 88.457C235.599 88.457 235.438 88.2952 235.599 88.2952C235.761 88.457 235.599 88.457 235.599 88.457ZM235.923 91.045C235.923 90.8832 235.923 91.045 235.923 91.045C236.085 90.8832 236.085 90.8832 235.923 91.045Z" fill="#EF7D6B"/>
<path d="M240.456 94.4418V94.28C240.456 94.28 240.456 94.1183 240.294 93.9565L240.456 94.4418Z" fill="#EF7D6B"/>
<path d="M240.294 94.7654C240.294 94.6036 240.456 94.6036 240.294 94.4419C240.294 94.4419 240.132 94.7654 240.294 94.7654Z" fill="#EF7D6B"/>
<path d="M237.056 94.1184C236.895 94.1184 236.895 94.1184 236.571 94.4419C236.571 94.7654 236.895 94.1184 236.895 94.4419C237.056 94.2802 236.895 94.1184 237.056 94.1184Z" fill="#EF7D6B"/>
<path d="M235.6 87.1631L235.923 87.3248L235.6 87.1631Z" fill="#EF7D6B"/>
<path d="M236.247 85.7073C236.247 85.7073 236.247 85.869 236.085 85.869C236.247 85.7073 236.571 86.1925 236.247 85.7073Z" fill="#EF7D6B"/>
<path d="M257.454 93.7951V93.6333C257.293 93.6333 257.293 93.7951 257.454 93.7951Z" fill="#F8B3A2"/>
<path d="M254.379 94.7654L254.217 95.2506C254.379 95.0889 254.379 94.9271 254.379 94.7654Z" fill="#F8B3A2"/>
<path d="M260.045 88.457L258.75 88.6188C259.235 88.6188 259.721 88.6188 260.368 88.6188C259.883 88.457 259.883 88.457 260.045 88.457Z" fill="#F8B3A2"/>
<path d="M260.045 90.2364C259.073 90.0747 259.397 89.9129 259.235 89.7512C259.559 89.7512 259.883 89.9129 259.721 90.0747C260.53 90.0747 258.588 89.5894 259.235 89.5894C259.235 89.5894 259.235 89.5894 259.397 89.5894C259.073 89.4277 259.397 89.4277 259.559 89.4277C259.721 89.2659 259.559 88.7807 258.749 88.7807H259.883C259.235 88.6189 258.588 88.6189 257.94 88.6189C257.94 88.6189 257.94 88.6189 257.94 88.4572C258.749 88.2954 259.559 88.2954 259.883 88.2954C260.045 88.2954 260.045 88.1337 259.883 88.1337C259.721 88.1337 258.911 88.2954 258.749 88.2954C259.559 88.1337 259.235 88.1337 259.721 87.8102C259.721 87.9719 258.749 88.1337 258.749 87.9719C258.911 87.9719 259.883 87.6484 259.883 87.6484C259.559 87.6484 259.073 87.6484 258.749 87.6484C258.911 87.6484 259.721 87.4867 259.883 87.3249C259.721 87.3249 259.883 87.1632 259.721 87.1632L259.559 87.3249C259.559 87.0014 258.102 87.6484 258.102 87.4867C258.264 87.4867 259.397 87.0014 259.559 86.8397C259.235 86.8397 258.588 87.1632 257.778 87.4867V87.3249C258.426 87.0014 259.235 86.6779 259.559 86.6779C259.721 86.5162 259.883 86.5162 259.883 86.3544C260.045 86.1927 260.368 86.1927 260.368 86.1927V85.8692C259.883 86.1927 259.721 86.0309 259.235 86.3544C259.397 86.3544 259.721 86.3544 260.045 86.3544C259.397 86.6779 258.264 87.0014 258.426 86.8397C258.588 86.6779 259.397 86.1927 259.559 86.1927C259.397 86.3544 259.073 86.1927 259.235 86.1927L259.559 86.0309C259.721 85.7074 258.749 86.3544 259.073 85.8692C259.073 85.8692 259.559 85.2222 259.235 85.3839C258.911 85.7074 258.102 86.3544 257.454 87.0014C257.454 87.0014 257.454 86.8397 257.292 86.8397L257.454 86.6779L257.292 86.8397C257.616 86.3544 258.264 86.0309 258.588 85.7074C258.426 85.8692 258.264 85.8692 258.264 86.0309C258.264 85.8692 258.749 85.7074 258.588 85.7074C258.102 86.1927 258.426 85.5457 258.102 86.0309C257.94 86.0309 258.102 85.8692 257.94 85.7074C257.778 85.8692 257.292 86.3544 256.969 86.6779C256.807 86.5162 256.969 86.1927 256.807 86.1927C256.807 86.0309 256.969 85.8692 257.131 85.5457C257.131 85.5457 256.969 85.8692 256.807 85.8692C256.969 85.3839 256.969 85.8692 257.292 85.2222C257.131 85.5457 256.807 85.5457 256.645 85.7074C256.483 86.1927 256.807 85.8692 256.969 85.7074C256.807 85.8692 256.645 86.1927 256.483 86.3544C256.321 86.3544 256.159 86.1927 256.159 86.1927C256.159 85.8692 255.835 86.0309 255.835 85.7074C255.835 85.8692 255.674 86.0309 255.674 86.0309C255.512 86.0309 255.188 85.8692 255.026 85.8692V85.7074V85.8692C255.026 85.7074 255.026 85.5457 255.026 85.5457C255.026 85.7074 255.026 85.7074 255.026 85.8692H254.864H254.702C254.055 86.0309 253.569 86.3544 253.245 87.0014C252.922 86.8397 252.76 86.5162 252.436 86.3544C252.922 87.0014 251.465 85.7074 252.112 86.6779C251.95 86.5162 251.95 86.3544 251.788 86.3544C251.95 86.6779 252.112 86.8397 251.788 86.6779C251.626 87.0014 251.303 86.8397 250.817 87.1632L251.303 87.3249C251.141 87.3249 250.979 87.3249 250.979 87.3249C251.626 87.8102 251.141 87.1632 251.788 87.6484C250.817 87.3249 251.626 88.1337 250.493 87.8102C250.493 87.9719 250.979 87.9719 250.979 88.1337H250.655L250.979 88.2954C250.979 88.2954 250.493 88.2954 250.331 88.2954V88.1337C250.008 88.1337 250.331 88.4572 250.169 88.4572L250.331 88.2954C250.493 88.7807 250.008 89.2659 250.655 89.5894H250.817C251.141 89.9129 250.493 89.7512 250.817 90.0747C250.979 90.0747 251.141 90.2364 251.141 90.2364C250.817 90.2364 250.655 90.3982 250.331 90.3982C250.817 90.7217 250.655 90.56 251.465 90.56L251.141 90.7217C251.465 90.7217 251.626 90.7217 251.788 90.7217C251.465 90.7217 251.303 90.8835 250.817 90.8835C250.169 91.5305 251.788 91.0452 250.655 91.5305C251.626 91.207 251.141 91.0452 251.303 91.0452C251.626 90.8835 251.95 90.8835 251.95 91.0452C251.95 91.0452 250.817 91.6922 250.979 92.0157C250.817 92.1775 251.303 92.0157 251.141 92.3392C251.626 92.0157 251.141 92.501 251.788 92.0157H251.465C251.626 92.0157 252.436 91.5305 252.274 92.0157C252.112 92.0157 251.95 92.1775 251.788 92.1775C251.626 92.3392 251.95 92.1775 251.788 92.3392C251.141 92.8245 251.465 92.1775 250.979 92.501C250.817 92.6627 251.626 92.3392 250.817 92.8245C251.788 92.3392 250.817 93.148 251.626 92.8245L251.303 93.148C251.303 93.148 251.626 92.9862 251.626 93.148L251.141 93.4715C251.626 93.3097 250.979 93.9567 251.303 93.9567C251.141 93.795 251.626 93.4715 251.788 93.148C252.436 92.9862 251.141 94.1185 251.626 94.2802C251.465 94.2802 251.626 93.9567 251.788 93.795C251.788 93.9567 251.788 94.1185 251.626 94.2802C251.95 94.442 251.788 93.795 252.112 93.795C251.788 94.2802 252.274 93.6332 252.598 93.6332L252.274 93.9567C252.436 94.442 252.922 93.148 252.922 93.6332L252.274 93.4715H252.436L252.112 93.9567C252.436 93.6332 252.436 93.795 252.598 93.9567C252.76 93.6332 252.922 93.148 253.083 93.3097C253.083 93.6332 252.922 93.6332 253.083 93.6332C252.922 93.795 252.76 94.1185 252.922 93.795L252.598 94.1185C252.598 94.442 252.922 94.2802 252.922 94.2802C252.922 94.2802 252.922 94.2802 252.922 94.1185C253.083 93.9567 253.245 93.795 253.407 93.6332C253.407 93.795 253.245 93.9567 253.245 94.1185C253.245 94.1185 253.407 93.9567 253.569 93.795C253.407 94.1185 253.407 94.442 253.083 94.6037C253.245 94.442 253.407 94.442 253.569 94.2802C253.569 94.442 253.569 94.7655 253.569 94.9272C253.731 95.2507 254.217 94.2802 254.379 94.6037C254.379 94.6037 254.378 94.442 254.54 94.442C254.702 94.6037 254.864 95.089 255.188 94.442L255.35 95.089C255.512 94.9272 255.026 94.2802 255.35 93.9567C255.512 93.6332 255.512 94.6037 255.512 94.7655C255.674 94.442 255.674 93.6332 255.997 94.2802C256.159 94.442 256.159 94.2802 255.997 94.442L256.159 94.7655C256.159 95.4125 255.835 95.2507 256.159 95.736C255.997 94.442 256.807 95.4125 256.483 94.1185L256.645 94.2802C257.131 94.7655 256.483 93.3097 256.807 93.4715C256.969 93.4715 256.969 93.6332 256.969 93.795V93.4715L257.131 93.6332L257.292 93.4715L257.131 92.9862C257.292 93.148 257.131 93.148 257.292 93.3097V92.9862C257.454 93.3097 257.616 93.6332 257.454 93.6332C258.264 94.6037 257.454 93.3097 258.102 93.795V93.9567C258.588 94.442 258.588 94.2802 259.073 94.442C258.911 94.2802 258.102 93.795 258.102 93.3097C258.264 93.3097 258.264 93.3097 258.102 93.148C258.426 93.4715 258.426 93.3097 258.426 93.3097L258.749 93.795C258.749 93.6332 258.588 93.3097 258.426 93.148C258.588 93.148 258.911 93.4715 259.235 93.6332C259.397 93.6332 258.588 93.148 258.749 92.9862C259.073 92.9862 258.911 92.8245 258.749 92.3392C258.911 92.3392 259.073 92.6627 259.235 92.6627L258.749 92.1775L258.911 92.3392C258.749 92.1775 258.426 91.854 258.426 91.6922C257.94 91.207 259.397 92.1775 258.911 91.5305C259.073 91.5305 259.235 91.6922 259.397 91.854L259.235 91.6922V91.5305L259.073 91.3687L258.749 91.0452L259.235 91.207C258.749 91.0452 258.426 90.7217 257.94 90.3982H257.778C257.778 90.3982 257.778 90.3982 257.778 90.2364C257.94 90.3982 258.102 90.3982 258.426 90.56L258.102 90.3982C258.426 90.56 258.749 90.8835 259.073 91.0452C259.073 91.0452 259.235 91.0452 259.235 91.207C259.235 91.207 259.235 91.207 259.073 91.0452L259.721 91.3687L259.559 91.207C259.721 91.207 259.883 91.207 260.045 91.207C259.559 90.7217 258.588 90.2364 258.426 89.9129C258.911 90.0747 259.235 90.0747 259.883 90.3982C259.235 90.2364 260.045 90.7217 259.883 90.8835C260.045 90.8835 260.206 90.8835 260.368 91.0452C260.206 90.8835 260.045 90.7217 259.883 90.56C259.883 90.2364 259.883 90.2364 260.045 90.2364ZM253.731 91.5305C253.731 91.5305 253.731 91.6922 253.731 91.5305C253.731 91.6922 253.731 91.6922 253.731 91.5305ZM257.778 93.4715C257.454 92.9862 257.616 93.3097 257.778 93.3097C257.94 93.3097 257.94 93.6332 257.778 93.4715ZM258.749 90.56C258.588 90.56 258.588 90.56 258.749 90.56V90.56Z" fill="#F8B3A2"/>
<path d="M259.073 91.0451L258.911 90.8833C258.911 91.0451 259.073 91.0451 259.073 91.0451Z" fill="#F8B3A2"/>
<path d="M258.426 85.5455L258.588 85.3838C258.588 85.3838 258.588 85.5455 258.426 85.5455Z" fill="#F8B3A2"/>
<path d="M255.188 85.5454V85.7072H255.35L255.188 85.5454Z" fill="#F8B3A2"/>
<path d="M256.321 85.0604C256.321 85.2222 256.321 85.2222 256.159 85.3839L256.483 84.8987L256.321 85.0604Z" fill="#F8B3A2"/>
<path d="M256.969 84.7368C256.807 84.8986 256.807 84.8986 256.807 85.0603C256.807 84.8986 257.13 84.7368 256.969 84.7368Z" fill="#F8B3A2"/>
<path d="M260.044 86.8397C259.721 86.8397 259.883 87.0014 259.721 87.0014C260.044 87.0014 259.883 87.1632 260.53 86.8397C260.53 86.6779 259.721 87.0014 260.044 86.8397Z" fill="#F8B3A2"/>
<path d="M258.911 93.9567C258.749 93.7949 258.749 93.7949 258.587 93.7949L258.911 93.9567Z" fill="#F8B3A2"/>
<path d="M257.13 94.6037L256.807 94.1184L257.13 94.6037Z" fill="#F8B3A2"/>
<path d="M255.512 95.7359L255.674 95.5741C255.674 95.7359 255.512 94.9271 255.512 95.7359Z" fill="#F8B3A2"/>
<path d="M67.7228 86.8396V125.336H62.5424V90.8834H44.7348V125.336H39.7163V86.8396H67.7228Z" fill="#EE4043"/>
<path d="M87.6347 122.101C92.4913 122.101 96.0528 117.572 96.0528 111.264C96.0528 106.573 93.6245 100.588 87.7965 100.588C81.9686 100.588 79.3784 106.088 79.3784 111.426C79.3784 117.572 82.778 122.101 87.6347 122.101ZM87.3109 125.983C79.8641 125.983 74.0361 120.484 74.0361 111.749C74.0361 102.529 80.1878 97.0298 87.7965 97.0298C95.729 97.0298 101.071 102.853 101.071 111.264C101.233 121.454 93.9483 125.983 87.3109 125.983Z" fill="#EE4043"/>
<path d="M112.565 97.5151V109.485H113.699L124.059 97.5151H130.211L118.07 109.97C122.602 110.455 125.354 113.528 127.459 118.381C128.268 120.16 129.078 122.91 130.373 125.175H125.193C124.383 124.042 123.574 121.778 122.602 119.513C120.66 114.984 118.07 113.043 113.537 113.043H112.565V125.175H107.547V97.5151H112.565Z" fill="#EE4043"/>
<path d="M154.333 124.204C153.037 124.851 150.123 125.822 146.4 125.822C137.982 125.822 132.64 120.16 132.64 111.588C132.64 103.015 138.468 96.8682 147.533 96.8682C150.447 96.8682 153.199 97.5152 154.494 98.3239L153.361 102.206C152.066 101.559 150.285 100.912 147.533 100.912C141.22 100.912 137.658 105.603 137.658 111.426C137.658 117.896 141.705 121.778 147.371 121.778C150.285 121.778 152.066 121.131 153.523 120.484L154.333 124.204Z" fill="#EE4043"/>
<path d="M165.341 86.8396V103.985H166.959L180.234 86.8396H186.224L171.654 104.47C178.13 105.279 180.558 109.161 182.501 114.499C183.958 118.381 185.091 121.94 186.71 125.498H181.367C179.91 122.91 178.939 119.513 177.806 116.44C176.025 111.264 173.597 107.867 167.121 107.867H165.502V125.498H160.484V86.8396H165.341Z" fill="#231F20"/>
<path d="M213.745 97.5151V125.175H208.727V101.559H199.175V108.676C199.175 116.44 198.366 121.616 194.804 124.042C193.347 125.175 191.89 125.822 189.3 125.822L188.814 121.94C189.786 121.778 190.919 121.293 191.567 120.807C194.157 118.866 194.481 114.984 194.481 108.838V97.6769L213.745 97.5151Z" fill="#231F20"/>
<path d="M226.858 97.5151H221.839V125.175H226.858V97.5151Z" fill="#231F20"/>
<path d="M240.132 97.5151V108.676H253.245V97.5151H258.264V125.336H253.245V112.72H240.132V125.336H235.114V97.5151H240.132Z" fill="#231F20"/>
<path d="M42.6302 130.351C41.3351 132.453 40.2019 135.688 40.2019 140.056C40.2019 144.423 41.3351 147.658 42.6302 149.761H41.1732C39.8781 147.981 38.583 144.746 38.583 140.056C38.583 135.365 40.04 132.13 41.1732 130.351H42.6302Z" fill="#231F20"/>
<path d="M44.7349 131.159C45.5443 130.998 46.3537 130.836 47.4869 130.836C48.9439 130.836 50.239 131.159 51.0485 131.968C51.8579 132.777 52.1817 133.909 52.1817 135.365C52.1817 136.821 51.8579 137.791 51.2103 138.6C50.4009 139.732 48.782 140.379 47.3251 140.379C47.0013 140.379 46.8394 140.379 46.5156 140.379V147.011H44.7349V131.159ZM46.5156 138.762C46.6775 138.762 47.0013 138.762 47.1632 138.762C48.9439 138.762 50.239 137.629 50.239 135.203C50.239 133.586 49.5915 132.13 47.4869 132.13C47.0013 132.13 46.6775 132.13 46.5156 132.292V138.762Z" fill="#231F20"/>
<path d="M61.2474 141.188C61.2474 145.717 59.1428 147.173 57.3621 147.173C55.2575 147.173 53.6387 145.232 53.6387 141.188C53.6387 136.982 55.5813 135.203 57.524 135.203C59.6285 135.203 61.2474 137.144 61.2474 141.188ZM55.4194 141.188C55.4194 143.129 55.7432 145.717 57.3621 145.717C58.9809 145.717 59.3047 142.967 59.3047 141.188C59.3047 139.409 58.9809 136.659 57.3621 136.659C55.7432 136.659 55.4194 139.409 55.4194 141.188Z" fill="#231F20"/>
<path d="M64.323 135.365L65.4562 137.791C65.78 138.438 65.9419 139.085 66.2657 139.894C66.5894 139.085 66.7513 138.438 67.0751 137.791L68.2083 135.365H70.151L67.3989 141.026L70.151 146.849H68.2083L67.0751 144.261C66.7513 143.614 66.5894 142.967 66.2657 142.32C66.1038 142.967 65.78 143.614 65.4562 144.261L64.323 146.849H62.3804L65.1325 141.026L62.3804 135.203H64.323V135.365Z" fill="#231F20"/>
<path d="M78.7313 146.687C78.2456 147.011 77.4362 147.173 76.4648 147.173C73.2271 147.173 71.1226 144.585 71.1226 139.085C71.1226 132.777 74.3603 130.674 76.7886 130.674C77.7599 130.674 78.4075 130.836 78.7313 131.159L78.2456 132.777C77.9218 132.615 77.4362 132.453 76.6267 132.453C74.846 132.453 72.9033 134.071 72.9033 139.085C72.9033 144.099 74.6841 145.717 76.6267 145.717C77.2743 145.717 77.9218 145.555 78.4075 145.393L78.7313 146.687Z" fill="#231F20"/>
<path d="M80.5117 130.351H82.2925V147.011H80.5117V130.351Z" fill="#231F20"/>
<path d="M86.9871 132.453C86.9871 133.1 86.5015 133.586 85.8539 133.586C85.2064 133.586 84.7207 133.1 84.7207 132.453C84.7207 131.806 85.2064 131.321 85.8539 131.321C86.6634 131.159 86.9871 131.645 86.9871 132.453ZM85.0445 147.011V135.365H86.8252V147.011H85.0445Z" fill="#231F20"/>
<path d="M89.4153 138.438C89.4153 137.144 89.4153 136.335 89.2534 135.365H90.8723L91.0342 136.821C91.5198 135.85 92.4912 135.203 93.6244 135.203C95.2432 135.203 96.3765 136.335 96.3765 139.247V147.011H94.5957V139.57C94.5957 138.276 94.2719 136.821 92.9768 136.821C92.1674 136.821 91.5198 137.468 91.1961 138.762C91.1961 139.085 91.1961 139.409 91.1961 139.732V147.011H89.4153V138.438Z" fill="#231F20"/>
<path d="M98.4814 149.923C99.7765 147.82 100.91 144.423 100.91 140.218C100.91 135.85 99.7765 132.615 98.4814 130.512H99.9384C101.234 132.292 102.529 135.527 102.529 140.218C102.529 144.908 101.072 148.143 99.9384 149.923H98.4814Z" fill="#231F20"/>
<path d="M117.746 138.762C117.746 144.746 115.641 147.173 113.051 147.173C110.299 147.173 108.518 144.261 108.518 138.923C108.518 133.586 110.461 130.674 113.213 130.674C115.965 130.674 117.746 133.586 117.746 138.762ZM110.461 138.923C110.461 142.32 111.108 145.555 113.213 145.555C115.317 145.555 115.803 141.997 115.803 138.923C115.803 135.85 115.317 132.292 113.213 132.292C111.108 132.292 110.461 135.688 110.461 138.923Z" fill="#231F20"/>
<path d="M120.822 135.365L121.955 137.791C122.279 138.438 122.44 139.085 122.764 139.894C123.088 139.085 123.25 138.438 123.574 137.791L124.707 135.365H126.65L123.897 141.026L126.65 146.849H124.383L123.25 144.261C122.926 143.614 122.764 142.967 122.44 142.32C122.279 142.967 121.955 143.614 121.631 144.261L120.498 146.849H118.555L121.307 141.026L118.555 135.203H120.822V135.365Z" fill="#231F20"/>
<path d="M135.068 141.188C135.068 145.717 132.963 147.173 131.182 147.173C129.078 147.173 127.459 145.232 127.459 141.188C127.459 136.982 129.402 135.203 131.344 135.203C133.449 135.203 135.068 137.144 135.068 141.188ZM129.24 141.188C129.24 143.129 129.564 145.717 131.182 145.717C132.801 145.717 133.125 142.967 133.125 141.188C133.125 139.409 132.801 136.659 131.182 136.659C129.564 136.659 129.24 139.409 129.24 141.188Z" fill="#231F20"/>
<path d="M143.809 135.365V147.011H142.029V136.983H139.438V140.703C139.438 143.938 139.277 146.202 137.496 147.011C137.172 147.173 136.686 147.335 136.201 147.335L135.877 145.879C136.363 145.717 136.686 145.555 136.848 145.394C137.496 144.747 137.658 143.129 137.658 141.026V135.688H143.809V135.365Z" fill="#231F20"/>
<path d="M153.523 141.188C153.523 145.717 151.418 147.173 149.637 147.173C147.533 147.173 145.914 145.232 145.914 141.188C145.914 136.982 147.857 135.203 149.799 135.203C151.742 135.203 153.523 137.144 153.523 141.188ZM147.695 141.188C147.695 143.129 148.019 145.717 149.637 145.717C151.256 145.717 151.58 142.967 151.58 141.188C151.58 139.409 151.256 136.659 149.637 136.659C148.019 136.659 147.695 139.409 147.695 141.188Z" fill="#231F20"/>
<path d="M162.75 135.365V145.555H163.722L163.56 150.084H162.103L161.941 147.011H155.951L155.789 150.084H154.332L154.17 145.555H154.98C155.466 144.747 155.789 143.938 156.113 143.129C156.437 141.835 156.599 140.379 156.599 138.762V135.365H162.75ZM158.379 138.6C158.379 140.218 158.218 141.835 157.894 143.129C157.732 143.938 157.408 144.747 156.922 145.555H160.808V136.821H158.379V138.6Z" fill="#231F20"/>
<path d="M166.636 135.365L169.388 140.541H169.712V135.365H171.492V140.541H171.978L174.73 135.365H176.835L173.435 140.703C174.892 141.026 175.701 142.32 176.025 143.938C176.349 145.07 176.673 146.364 176.997 147.011H175.216C174.892 146.526 174.73 145.555 174.406 144.423C173.921 142.482 173.111 141.673 171.816 141.673H171.654V146.849H169.874V141.673H169.712C168.093 141.673 167.607 142.482 167.121 144.423C166.96 145.393 166.636 146.202 166.312 146.849H164.531C164.855 146.04 165.179 144.746 165.503 143.776C165.988 142.32 166.636 140.864 168.093 140.541L164.693 135.203H166.636V135.365Z" fill="#231F20"/>
<path d="M179.425 135.365L180.882 141.997C181.044 142.967 181.206 143.614 181.367 144.423C181.529 143.776 181.691 142.967 181.853 141.997L183.148 135.365H184.929L182.986 142.805C182.339 145.717 181.529 148.467 180.072 150.246C179.263 151.216 178.454 151.863 177.968 152.025L177.32 150.408C177.806 150.084 178.454 149.599 178.939 148.952C179.425 148.305 179.749 147.496 180.072 147.011C180.234 146.687 180.234 146.526 180.234 146.364C180.234 146.202 180.234 146.04 180.234 145.879L177.32 135.203H179.425V135.365Z" fill="#231F20"/>
<path d="M188.491 135.365V140.217H189.948C190.271 136.659 191.89 135.203 193.671 135.203C195.614 135.203 197.233 137.144 197.233 141.188C197.233 145.717 195.29 147.173 193.509 147.173C191.567 147.173 190.11 145.393 189.948 141.673H188.491V146.849H186.71V135.203H188.491V135.365ZM195.452 141.188C195.452 139.409 195.128 136.659 193.671 136.659C192.214 136.659 191.89 139.409 191.89 141.188C191.89 143.129 192.214 145.717 193.833 145.717C195.128 145.717 195.452 142.967 195.452 141.188Z" fill="#231F20"/>
<path d="M200.956 135.365V139.732C200.956 140.865 201.279 141.835 202.574 141.835C203.222 141.835 203.87 141.512 204.355 141.35V135.365H206.136V147.011H204.355V142.644C203.87 142.967 202.898 143.291 202.089 143.291C200.308 143.291 199.175 142.159 199.175 140.056V135.365H200.956Z" fill="#231F20"/>
<path d="M210.507 135.365V139.409C210.507 141.35 210.507 143.129 210.345 144.908C210.831 143.453 211.479 141.673 212.126 140.379L214.069 135.365H216.012V147.011H214.231V143.129C214.231 140.541 214.231 139.247 214.393 137.468C213.907 138.924 213.421 140.218 212.936 141.512C212.612 142.482 211.479 145.07 210.669 147.011H208.727V135.365H210.507Z" fill="#231F20"/>
<path d="M220.22 135.365V139.409C220.22 141.35 220.22 143.129 220.058 144.908C220.544 143.452 221.192 141.673 221.839 140.379L223.782 135.365H225.724V147.011H223.944V143.129C223.944 140.541 223.944 139.247 224.105 137.468C223.62 138.923 223.296 140.217 222.649 141.511C222.325 142.482 221.192 145.07 220.382 147.011H218.439V135.365H220.22ZM220.706 130.998C220.868 131.968 221.192 132.615 222.163 132.615C223.134 132.615 223.458 131.968 223.62 130.998H224.915C224.753 132.939 223.782 133.586 222.163 133.586C220.706 133.586 219.735 132.777 219.411 130.998H220.706Z" fill="#231F20"/>
<path d="M232.524 135.365H234.628L236.085 140.541C236.571 141.835 236.733 142.806 237.218 144.261C237.542 142.806 237.866 141.997 238.19 140.541L239.647 135.365H241.913L242.722 147.011H240.942L240.78 141.997C240.78 140.541 240.618 139.409 240.618 137.144C240.294 138.277 239.97 139.894 239.485 141.673L237.866 147.011H236.571L235.114 141.835C234.628 140.218 234.304 138.6 233.981 137.144C233.981 138.924 233.981 140.541 233.819 142.159L233.657 147.011H231.876L232.524 135.365Z" fill="#231F20"/>
<path d="M245.96 135.365L247.417 141.997C247.579 142.967 247.741 143.614 247.903 144.423C248.065 143.776 248.227 142.967 248.389 141.997L249.684 135.365H251.465L249.522 142.805C248.874 145.717 248.065 148.467 246.608 150.246C245.799 151.216 244.989 151.863 244.503 152.025L243.856 150.408C244.342 150.084 244.989 149.599 245.475 148.952C245.96 148.305 246.284 147.496 246.608 147.011C246.77 146.687 246.77 146.526 246.77 146.364C246.77 146.202 246.77 146.04 246.77 145.879L243.856 135.203H245.96V135.365Z" fill="#231F20"/>
<path d="M258.911 146.688C258.426 146.849 257.778 147.173 256.969 147.173C254.379 147.173 252.76 145.07 252.76 141.35C252.76 137.953 254.379 135.365 257.293 135.365C257.94 135.365 258.588 135.527 258.911 135.688L258.588 137.144C258.426 136.983 257.94 136.821 257.293 136.821C255.512 136.821 254.541 139.085 254.541 141.35C254.541 144.1 255.512 145.717 257.293 145.717C257.778 145.717 258.264 145.555 258.588 145.394L258.911 146.688Z" fill="#231F20"/>
</g>
<defs>
<clipPath id="clip0_772_2110">
<rect width="221.785" height="67.4502" fill="white" transform="translate(38.583 84.7368)"/>
</clipPath>
</defs>
</svg>
