<svg width="58" height="59" viewBox="0 0 58 59" fill="none" xmlns="http://www.w3.org/2000/svg">
<path d="M42.1796 3H15.8164C8.53637 3 2.63477 8.90161 2.63477 16.1816V42.5448C2.63477 49.8248 8.53637 55.7264 15.8164 55.7264H42.1796C49.4596 55.7264 55.3612 49.8248 55.3612 42.5448V16.1816C55.3612 8.90161 49.4596 3 42.1796 3Z" stroke="#EB2027" stroke-width="5" stroke-linecap="round" stroke-linejoin="round"/>
<path d="M39.5429 27.7026C39.8683 29.8966 39.4935 32.1374 38.4719 34.1062C37.4504 36.075 35.834 37.6716 33.8528 38.6688C31.8715 39.666 29.6263 40.0131 27.4364 39.6608C25.2465 39.3084 23.2235 38.2744 21.6551 36.706C20.0867 35.1376 19.0527 33.1146 18.7003 30.9247C18.348 28.7348 18.6951 26.4896 19.6923 24.5083C20.6895 22.5271 22.2861 20.9107 24.2549 19.8892C26.2237 18.8676 28.4645 18.4928 30.6585 18.8182C32.8966 19.15 34.9685 20.1929 36.5683 21.7928C38.1682 23.3926 39.2111 25.4645 39.5429 27.7026Z" stroke="#EB2027" stroke-width="5" stroke-linecap="round" stroke-linejoin="round"/>
<path d="M43.4976 14.8638H43.5239" stroke="#EB2027" stroke-width="5" stroke-linecap="round" stroke-linejoin="round"/>
</svg>
