<svg width="311" height="119" viewBox="0 0 311 119" fill="none" xmlns="http://www.w3.org/2000/svg">
<path d="M6.28872 79.0065H25.7866V84.8142H0L0 34.6545H6.28872V79.0065Z" fill="black"/>
<path d="M60.5368 84.8142H54.248V34.6545H60.5368V84.8142Z" fill="black"/>
<path d="M110.992 58.8506L131.754 84.8142H123.584L104.388 60.1428V84.8142H98.0991V34.6545H104.388V58.8506L122.622 34.6545H129.7L110.992 58.8506Z" fill="black"/>
<path d="M162.656 84.8142H156.367V34.6545H162.656V84.8142Z" fill="black"/>
<path d="M211.824 101.478C221.975 111.964 235.543 118.158 249.872 118.826V0C218.141 1.48533 193.589 29.2759 195.025 62.1017C195.672 76.9253 201.659 90.9761 211.824 101.478ZM216.06 73.2714L227.374 58.522C229.413 55.7593 229.728 54.6305 229.728 52.1945V51.2291C229.728 47.8277 228.307 46.5206 224.387 46.5206C222.033 46.6245 219.707 47.0553 217.467 47.8128L216.835 47.9762V42.629L217.151 42.4656C219.506 41.723 221.932 41.2774 224.387 41.1734C231.94 41.1734 235.558 44.248 235.558 50.7389V52.0312C235.558 55.596 234.768 58.1953 230.834 63.2157L223.281 72.4545H235.859V77.6383H215.901V73.2714H216.06Z" fill="#2DCCD3"/>
<path d="M280.367 65.1348V49.8062L271.565 65.1348H280.367Z" fill="#2DCCD3"/>
<path d="M293.257 17.3499C283.107 6.86345 269.538 0.66962 255.209 0.0012207V118.664C286.882 117.209 311.42 89.4626 310.013 56.6815C309.367 41.8727 303.394 27.8363 293.257 17.3499ZM289.482 70.198H286.021V77.6544H280.364V70.198H265.116V65.9797L279.732 41.8282H286.021V65.1776H289.482V70.198Z" fill="#2DCCD3"/>
</svg>
