<svg width="32" height="32" viewBox="0 0 32 32" fill="none" xmlns="http://www.w3.org/2000/svg">
<path d="M14.4165 17.5833H17.5832L23.9165 17.5833V14.4166H17.5832L14.4165 14.4166L8.08317 14.4166V17.5833L14.4165 17.5833ZM15.9998 31.8333C13.8096 31.8333 11.7512 31.4174 9.82484 30.5856C7.89845 29.7549 6.22275 28.627 4.79775 27.202C3.37275 25.777 2.24489 24.1013 1.41417 22.175C0.582393 20.2486 0.166504 18.1902 0.166504 16C0.166504 13.8097 0.582393 11.7514 1.41417 9.82496C2.24489 7.89857 3.37275 6.22288 4.79775 4.79788C6.22275 3.37288 7.89845 2.24449 9.82484 1.41271C11.7512 0.581987 13.8096 0.166626 15.9998 0.166626C18.1901 0.166626 20.2484 0.581987 22.1748 1.41271C24.1012 2.24449 25.7769 3.37288 27.2019 4.79788C28.6269 6.22288 29.7548 7.89857 30.5855 9.82496C31.4173 11.7514 31.8332 13.8097 31.8332 16C31.8332 18.1902 31.4173 20.2486 30.5855 22.175C29.7548 24.1013 28.6269 25.777 27.2019 27.202C25.7769 28.627 24.1012 29.7549 22.1748 30.5856C20.2484 31.4174 18.1901 31.8333 15.9998 31.8333ZM15.9998 28.6666C19.5359 28.6666 22.5311 27.4395 24.9853 24.9854C27.4394 22.5312 28.6665 19.5361 28.6665 16C28.6665 12.4638 27.4394 9.46871 24.9853 7.01454C22.5311 4.56038 19.5359 3.33329 15.9998 3.33329C12.4637 3.33329 9.46859 4.56038 7.01442 7.01454C4.56025 9.46871 3.33317 12.4638 3.33317 16C3.33317 19.5361 4.56025 22.5312 7.01442 24.9854C9.46859 27.4395 12.4637 28.6666 15.9998 28.6666Z" fill="#EB2027"/>
</svg>
