<svg width="32" height="32" viewBox="0 0 32 32" fill="none" xmlns="http://www.w3.org/2000/svg">
<path d="M13.7832 18.85L10.3394 15.4062C10.0491 15.1159 9.68656 14.9777 9.25167 14.9914C8.81573 15.004 8.45261 15.1555 8.16234 15.4458C7.87206 15.7361 7.72692 16.1055 7.72692 16.5541C7.72692 17.0027 7.87206 17.3722 8.16234 17.6625L12.6748 22.175C12.9651 22.4652 13.3346 22.6104 13.7832 22.6104C14.2318 22.6104 14.6012 22.4652 14.8915 22.175L23.8769 13.1895C24.1672 12.8993 24.306 12.5362 24.2933 12.1002C24.2796 11.6653 24.1276 11.3027 23.8373 11.0125C23.5471 10.7222 23.1776 10.577 22.729 10.577C22.2804 10.577 21.9109 10.7222 21.6207 11.0125L13.7832 18.85ZM15.9998 31.8333C13.8096 31.8333 11.7512 31.4174 9.82484 30.5856C7.89845 29.7549 6.22275 28.627 4.79775 27.202C3.37275 25.777 2.24489 24.1013 1.41417 22.175C0.582393 20.2486 0.166504 18.1902 0.166504 16C0.166504 13.8097 0.582393 11.7513 1.41417 9.82496C2.24489 7.89857 3.37275 6.22288 4.79775 4.79788C6.22275 3.37288 7.89845 2.24449 9.82484 1.41271C11.7512 0.581987 13.8096 0.166626 15.9998 0.166626C18.1901 0.166626 20.2484 0.581987 22.1748 1.41271C24.1012 2.24449 25.7769 3.37288 27.2019 4.79788C28.6269 6.22288 29.7548 7.89857 30.5855 9.82496C31.4173 11.7513 31.8332 13.8097 31.8332 16C31.8332 18.1902 31.4173 20.2486 30.5855 22.175C29.7548 24.1013 28.6269 25.777 27.2019 27.202C25.7769 28.627 24.1012 29.7549 22.1748 30.5856C20.2484 31.4174 18.1901 31.8333 15.9998 31.8333ZM15.9998 28.6666C19.5096 28.6666 22.4984 27.4332 24.9663 24.9664C27.4331 22.4985 28.6665 19.5097 28.6665 16C28.6665 12.4902 27.4331 9.50143 24.9663 7.03354C22.4984 4.56671 19.5096 3.33329 15.9998 3.33329C12.4901 3.33329 9.50184 4.56671 7.035 7.03354C4.56711 9.50143 3.33317 12.4902 3.33317 16C3.33317 19.5097 4.56711 22.4985 7.035 24.9664C9.50184 27.4332 12.4901 28.6666 15.9998 28.6666Z" fill="#F7941D"/>
</svg>
