<svg width="173" height="53" viewBox="0 0 173 53" fill="none" xmlns="http://www.w3.org/2000/svg">
<g clip-path="url(#clip0_4_1069)">
<path d="M147.871 4.8297C147.997 4.9568 147.997 5.0839 148.123 5.211C147.871 5.0839 147.366 4.8297 147.492 4.7026C147.618 4.7026 147.997 4.8297 148.123 4.9568C147.997 4.9568 147.997 4.8297 147.997 4.8297L148.123 4.9568C148.25 4.9568 147.745 4.7026 148.123 4.7026C148.123 4.7026 148.502 4.7026 148.376 4.57551C148.123 4.57551 147.745 4.44841 147.366 4.44841V4.32131H147.492H147.366C147.618 4.32131 147.871 4.44841 148.123 4.44841C147.997 4.44841 147.997 4.44841 147.871 4.44841C147.997 4.44841 148.123 4.44841 148.123 4.44841C147.871 4.44841 148.123 4.32131 147.871 4.44841C147.745 4.32131 147.871 4.32131 147.871 4.32131C147.745 4.32131 147.492 4.32131 147.366 4.32131V4.19421C147.366 4.06711 147.492 4.06711 147.492 3.94001C147.618 3.94001 147.618 3.81292 147.745 3.81292H147.618C147.871 3.68582 147.618 3.94001 147.997 3.81292C147.871 3.81292 147.745 3.81292 147.618 3.68582C147.366 3.81292 147.618 3.81292 147.745 3.81292C147.618 3.81292 147.492 3.81292 147.366 3.81292C147.366 3.68582 147.366 3.55872 147.239 3.43162C147.239 3.30452 147.113 3.17742 147.239 3.05033H147.113C147.113 2.92323 146.987 2.79613 146.861 2.66903C146.861 2.66903 146.861 2.66903 146.734 2.54193C146.734 2.54193 146.734 2.54193 146.861 2.41483H146.734L146.861 2.28774L146.734 2.41483C146.734 2.41483 146.734 2.41483 146.608 2.41483C146.608 2.41483 146.608 2.41483 146.482 2.41483C146.229 2.16064 145.85 2.03354 145.345 2.03354C145.345 1.90644 145.345 1.90644 145.345 1.77934C145.219 2.16064 145.219 1.14385 144.966 1.77934C144.966 1.65224 144.966 1.65224 144.966 1.52515C144.966 1.77934 144.84 1.77934 144.84 1.65224C144.588 1.65224 144.461 1.52515 144.209 1.52515V1.77934L144.082 1.65224C144.082 2.03354 144.209 1.65224 144.209 2.03354C144.082 1.65224 143.83 2.16064 143.704 1.65224C143.577 1.65224 143.83 1.90644 143.704 1.90644V1.77934V1.90644C143.704 1.90644 143.577 1.77934 143.451 1.65224C143.325 1.52515 143.325 1.77934 143.199 1.77934H143.325C143.199 2.03354 142.82 2.03354 142.82 2.41483L142.946 2.54193C142.946 2.79613 142.82 2.54193 142.693 2.79613C142.693 2.92323 142.693 2.92323 142.693 2.92323C142.693 2.79613 142.441 2.79613 142.441 2.66903C142.441 2.92323 142.441 2.79613 142.693 3.17742L142.567 2.54193C142.693 2.66903 142.693 2.66903 142.693 2.79613C142.567 2.66903 142.441 2.66903 142.315 2.54193C141.936 2.54193 142.441 2.92323 141.936 2.79613C142.315 3.05033 142.315 2.79613 142.315 2.79613C142.441 2.79613 142.567 3.05033 142.567 3.05033C142.567 3.05033 142.062 2.92323 141.936 3.05033C141.809 3.05033 142.062 3.17742 141.81 3.17742C142.062 3.30452 141.809 3.30452 142.062 3.30452V3.17742C142.062 3.30452 142.567 3.43162 142.315 3.55872L142.188 3.43162C142.062 3.43162 142.188 3.55872 142.188 3.55872C141.809 3.43162 142.188 3.43162 141.936 3.17742C141.809 3.17742 142.188 3.43162 141.81 3.30452C142.315 3.55872 141.683 3.43162 142.062 3.68582H141.81L141.936 3.81292L141.683 3.68582C141.936 3.81292 141.431 3.81292 141.557 3.94001C141.557 3.68582 141.809 3.94001 141.936 3.81292C142.188 4.06711 141.431 3.94001 141.431 4.19421C141.431 4.19421 141.557 4.06711 141.683 4.06711C141.683 4.06711 141.557 4.19421 141.431 4.19421C141.431 4.44841 141.683 4.19421 141.81 4.19421C141.557 4.32131 141.936 4.32131 142.062 4.32131H141.81C141.683 4.57551 142.315 4.32131 142.188 4.44841H141.936L142.062 4.57551H141.81C142.062 4.7026 141.936 4.7026 141.936 4.8297C142.062 4.8297 142.315 4.7026 142.315 4.8297C142.188 4.9568 142.062 4.8297 142.188 4.9568C142.062 4.9568 141.809 4.9568 142.062 4.8297H141.81C141.683 4.9568 141.81 5.0839 141.81 5.0839C141.81 5.0839 141.81 5.0839 141.81 4.9568C141.936 4.9568 142.062 4.9568 142.188 5.0839C142.188 5.0839 142.062 5.0839 141.936 5.0839H142.062C141.936 5.0839 141.683 5.211 141.557 5.211L141.81 5.3381C141.81 5.3381 141.683 5.46519 141.557 5.46519C141.557 5.59229 141.683 5.59229 141.81 5.59229H141.683C141.683 5.71939 141.81 5.59229 141.81 5.59229C141.936 5.59229 142.062 5.59229 141.936 5.71939C141.936 5.71939 141.936 5.71939 142.062 5.71939C142.062 5.84649 142.062 6.10069 142.315 6.10069L142.188 6.35488C142.315 6.35488 142.441 5.97359 142.567 6.10069C142.693 6.10069 142.441 6.35488 142.441 6.48198C142.441 6.48198 142.567 6.48198 142.567 6.35488V6.48198C142.315 6.60908 142.315 6.48198 142.188 6.73618C142.567 6.22778 142.567 6.99037 142.946 6.48198V6.60908C142.946 6.99037 143.325 6.22778 143.325 6.48198C143.325 6.48198 143.325 6.60908 143.325 6.73618L143.451 6.60908V6.73618H143.577L143.83 6.48198C143.83 6.60908 143.83 6.48198 143.83 6.60908L143.956 6.48198C143.956 6.60908 143.83 6.73618 143.83 6.73618C143.704 7.37167 143.956 6.60908 144.082 6.99037H143.956C143.956 7.37167 144.082 7.24457 144.082 7.49877C144.082 7.37167 143.956 6.86328 144.082 6.73618C144.082 6.73618 144.082 6.86328 144.209 6.73618C144.209 6.99037 144.209 6.99037 144.335 6.86328V7.11747C144.461 6.99037 144.461 6.86328 144.461 6.73618C144.588 6.73618 144.588 6.99037 144.588 7.24457C144.714 7.24457 144.588 6.86328 144.714 6.86328C144.84 6.99037 144.84 6.86328 145.093 6.73618C145.219 6.86328 145.093 6.86328 145.093 6.99037L145.219 6.73618V6.86328C145.219 6.73618 145.219 6.60908 145.345 6.48198C145.345 6.10069 145.472 6.99037 145.598 6.60908C145.598 6.73618 145.598 6.73618 145.598 6.86328C145.598 6.86328 145.598 6.73618 145.724 6.73618V6.60908V6.35488L145.85 6.48198C145.724 6.22778 145.724 6.10069 145.85 5.84649V6.10069C145.85 6.22778 145.85 6.35488 145.85 6.48198L145.472 6.35488C145.472 6.48198 145.472 6.73618 145.472 6.86328C145.472 6.86328 145.472 6.86328 145.472 6.73618V6.86328V6.73618L145.598 6.99037V6.86328L145.85 6.99037C145.85 6.60908 145.85 6.10069 145.977 5.97359C145.977 6.22778 146.103 6.35488 146.229 6.60908C146.103 6.35488 146.103 6.73618 145.977 6.73618L146.103 6.86328L146.229 6.48198C146.355 6.73618 146.355 6.60908 146.355 6.73618C146.103 6.35488 146.355 6.35488 146.355 6.22778C146.482 6.35488 146.482 6.48198 146.355 6.48198C146.608 6.73618 146.229 5.97359 146.482 6.10069C146.482 6.10069 146.482 6.10069 146.482 6.22778C146.482 6.10069 146.608 6.10069 146.608 6.22778C146.734 6.22778 146.987 5.97359 146.734 5.71939L147.113 6.10069C146.987 5.84649 146.734 5.59229 146.608 5.3381C146.861 5.59229 147.113 5.71939 147.113 5.97359L146.734 5.59229L147.239 6.22778C147.113 6.10069 147.113 5.97359 147.239 5.97359C147.239 5.97359 147.239 5.97359 147.239 6.10069C147.239 6.10069 147.366 6.10069 147.366 5.97359C147.366 5.97359 146.987 5.71939 146.987 5.59229C147.366 5.71939 147.113 5.71939 147.492 5.71939C147.366 5.71939 146.987 5.3381 147.113 5.3381C147.113 5.3381 147.492 5.59229 147.492 5.71939C147.366 5.59229 147.239 5.46519 147.113 5.3381C147.113 5.46519 147.492 5.59229 147.618 5.59229C147.492 5.59229 147.745 5.46519 147.618 5.46519H147.492C147.618 5.3381 146.987 4.9568 146.987 4.8297C147.113 4.8297 147.492 5.211 147.618 5.0839C147.492 4.9568 147.239 4.8297 146.861 4.57551V4.44841C147.113 4.57551 147.492 4.8297 147.618 4.9568C147.745 4.9568 147.745 4.9568 147.871 4.9568C147.997 4.9568 147.997 5.0839 147.997 5.0839L148.123 4.9568C148.123 5.0839 148.123 4.9568 147.871 4.8297ZM145.598 6.60908C145.598 6.60908 145.724 6.60908 145.598 6.60908C145.724 6.60908 145.724 6.73618 145.598 6.60908ZM142.567 6.73618C142.693 6.73618 142.693 6.73618 142.693 6.86328C142.693 6.73618 142.693 6.73618 142.567 6.73618ZM143.83 7.11747C143.83 6.99037 143.83 6.99037 143.83 7.11747C143.704 7.24457 143.83 7.11747 143.83 7.11747Z" fill="#EE4043"/>
<path d="M147.618 2.92334C147.618 2.92334 147.492 2.92334 147.492 3.05044L147.618 2.92334Z" fill="#EE4043"/>
<path d="M147.871 3.05038C147.744 3.05038 147.744 2.92329 147.618 3.05038C147.744 3.05038 147.871 3.17748 147.871 3.05038Z" fill="#EE4043"/>
<path d="M147.997 5.46518C147.871 5.33808 147.871 5.46518 147.745 5.46518C147.745 5.59228 147.745 5.59228 147.997 5.71938C148.25 5.59228 147.871 5.46518 147.997 5.46518Z" fill="#EE4043"/>
<path d="M141.936 6.8634C141.936 6.8634 142.062 6.8634 142.062 6.9905C141.936 6.8634 142.188 6.60921 141.936 6.8634Z" fill="#EE4043"/>
<path d="M155.069 0.508301C154.942 0.508301 155.069 0.635399 155.069 0.762497V0.508301Z" fill="#EF7D6B"/>
<path d="M160.246 3.43176L160.12 3.55886C159.867 3.30467 159.993 2.92337 159.488 2.79627L159.362 2.92337C159.109 2.92337 159.362 2.66917 159.236 2.54208C159.109 2.54208 158.983 2.54208 158.983 2.54208C159.109 2.54208 159.109 2.28788 159.362 2.16078C158.983 2.16078 159.109 2.16078 158.731 2.41498L158.857 2.28788C158.731 2.54208 158.604 2.54208 158.604 2.54208C158.731 2.41498 158.731 2.28788 158.983 2.16078C159.109 1.65239 158.478 2.41498 158.731 1.65239C158.352 2.03368 158.731 2.03368 158.604 2.16078C158.478 2.41498 158.225 2.54208 158.225 2.41498C158.225 2.41498 158.604 1.65239 158.352 1.65239C158.352 1.52529 158.099 1.77949 158.225 1.52529C158.099 1.77949 158.099 1.52529 157.973 1.90658H158.099C157.973 2.03368 157.72 2.41498 157.72 2.16078C157.72 2.03368 157.847 1.90658 157.847 1.90658C157.847 1.77949 157.72 1.90658 157.72 1.77949C157.847 1.39819 157.973 1.77949 158.225 1.52529C158.225 1.27109 157.847 1.77949 158.099 1.27109C157.847 1.77949 157.973 1.144 157.72 1.52529L157.847 1.27109L157.72 1.39819L157.847 1.0169C157.72 1.27109 157.72 0.635602 157.594 0.7627C157.847 0.7627 157.594 1.144 157.594 1.27109C157.215 1.52529 157.594 0.508503 157.215 0.635602C157.215 0.635602 157.341 0.7627 157.215 0.889798C157.215 0.889798 157.089 0.7627 157.089 0.508503C156.836 0.508503 157.089 0.7627 156.963 1.0169C156.963 0.635602 156.836 1.144 156.836 1.27109V1.0169C156.584 0.889798 156.836 1.52529 156.584 1.39819L156.71 1.0169L156.584 1.144V0.7627C156.458 1.0169 156.458 0.889798 156.331 0.889798C156.331 1.0169 156.331 1.39819 156.331 1.39819C156.205 1.27109 156.331 1.144 156.205 1.144C156.205 1.0169 156.205 0.7627 156.331 1.0169V0.7627C156.205 0.508503 156.205 0.7627 156.079 0.7627C156.079 0.889798 155.952 1.0169 155.952 1.144C155.952 1.0169 155.952 0.889798 155.952 0.889798C155.952 0.889798 155.952 1.0169 155.826 1.144C155.826 0.889798 155.7 0.635602 155.826 0.508503L155.7 0.7627C155.7 0.635602 155.574 0.508503 155.574 0.381405C155.447 0.254307 155.447 0.889798 155.195 0.7627V0.889798C155.068 0.889798 154.816 0.7627 154.816 1.144L154.437 0.889798C154.437 1.0169 154.816 1.27109 154.69 1.52529C154.69 1.77949 154.437 1.27109 154.311 1.27109C154.311 1.52529 154.563 1.90658 154.185 1.77949C154.185 1.52529 154.311 1.52529 154.311 1.39819L154.058 1.27109C153.932 0.889798 154.058 0.889798 153.806 0.7627C154.311 1.39819 153.427 1.14399 154.058 1.77949H153.932C153.553 1.65239 154.311 2.28788 154.058 2.28788C153.932 2.28788 153.806 2.28788 153.806 2.16078L153.932 2.41498C153.932 2.41498 153.806 2.41498 153.806 2.28788V2.54208L154.058 2.79627C153.932 2.79627 154.058 2.79627 153.932 2.66917L154.058 2.79627C153.806 2.79627 153.679 2.54208 153.806 2.54208C153.048 2.28788 153.932 2.66917 153.427 2.66917V2.54208C153.048 2.41498 153.048 2.54208 152.796 2.54208C152.922 2.54208 153.553 2.54208 153.679 2.79627C153.679 2.79627 153.553 2.79627 153.679 2.92337C153.427 2.79627 153.427 2.92337 153.427 2.92337L153.048 2.79627C153.174 2.92337 153.301 2.92337 153.427 3.05047C153.427 3.17757 153.048 3.05047 152.796 3.05047C152.669 3.17757 153.301 3.05047 153.301 3.30467C153.174 3.43176 153.301 3.55886 153.427 3.68596C153.301 3.68596 153.174 3.68596 153.048 3.68596L153.301 3.81306H153.174C153.301 3.94016 153.553 3.81306 153.679 3.94016C154.058 3.94016 153.048 4.06726 153.553 4.19435C153.427 4.19435 153.301 4.19435 153.174 4.19435C153.301 4.32145 153.301 4.19435 153.301 4.32145H153.427L153.806 4.44855L153.553 4.57565C153.806 4.57565 154.185 4.57565 154.437 4.57565H154.563C154.563 4.57565 154.563 4.57565 154.563 4.70275C154.437 4.70275 154.311 4.70275 154.185 4.70275H154.437C154.185 4.70275 153.932 4.70275 153.679 4.70275H153.806H153.679C153.679 4.70275 153.679 4.70275 153.806 4.70275H153.427H153.553C153.427 4.82985 153.427 4.82985 153.301 4.95694C153.679 5.08404 154.311 5.08404 154.563 5.21114C154.311 5.21114 154.058 5.33824 153.679 5.46534C154.058 5.33824 153.553 5.33824 153.553 5.21114C153.553 5.21114 153.427 5.33824 153.301 5.33824C153.427 5.33824 153.553 5.46534 153.679 5.46534C153.427 5.46534 153.427 5.59244 153.427 5.59244C153.932 5.46534 153.806 5.59244 154.058 5.59244C153.932 5.71953 153.679 5.71953 153.679 5.59244C153.301 5.84663 154.311 5.46534 154.058 5.71953C154.058 5.71953 154.058 5.84663 153.932 5.84663C153.932 6.10083 154.185 6.35503 154.563 6.10083L153.932 6.48212C154.058 6.35503 154.311 6.35503 154.437 6.22793C154.185 6.35503 154.058 6.48212 153.806 6.60922C154.058 6.48212 154.058 6.48212 154.058 6.60922L154.563 6.22793C154.69 6.10083 154.816 6.10083 155.069 5.97373C154.69 6.22793 154.311 6.60922 154.058 6.60922C154.058 6.73632 154.058 6.73632 154.185 6.73632C154.185 6.73632 154.563 6.35503 154.69 6.35503C154.311 6.73632 154.563 6.60922 154.311 6.86342C154.311 6.73632 154.816 6.35503 154.942 6.35503C154.816 6.35503 154.437 6.86342 154.437 6.86342C154.563 6.73632 154.816 6.60922 154.942 6.48212C154.816 6.48212 154.563 6.86342 154.437 6.99052C154.563 6.86342 154.563 7.11762 154.69 7.11762V6.99052C154.816 7.11762 155.447 6.35503 155.447 6.48212C155.321 6.60922 154.942 7.11762 154.942 7.24471C155.068 7.11762 155.321 6.73632 155.7 6.35503C155.7 6.35503 155.826 6.35503 155.826 6.48212C155.574 6.86342 155.195 7.24471 155.069 7.37181C155.069 7.49891 154.942 7.49891 155.069 7.62601C155.069 7.75311 154.942 7.75311 154.816 7.75311L154.942 8.0073C155.195 7.62601 155.321 7.75311 155.447 7.49891C155.321 7.62601 155.195 7.62601 155.069 7.75311C155.321 7.37181 155.7 6.86342 155.826 6.99052C155.826 7.11762 155.447 7.62601 155.447 7.75311C155.574 7.62601 155.7 7.62601 155.7 7.62601L155.574 7.75311C155.574 7.88021 155.952 7.37181 155.826 7.75311C155.826 7.75311 155.826 8.2615 155.826 8.0073C155.826 7.75311 156.079 7.11762 156.205 6.60922C156.205 6.60922 156.205 6.60922 156.331 6.60922V6.73632V6.60922C156.331 6.60922 156.331 6.60922 156.458 6.60922C156.458 6.99052 156.205 7.37181 156.205 7.62601C156.205 7.49891 156.331 7.37181 156.331 7.37181C156.331 7.49891 156.205 7.75311 156.331 7.62601C156.458 7.24471 156.458 7.62601 156.458 7.24471C156.584 7.11762 156.458 7.37181 156.584 7.37181C156.584 7.11762 156.71 6.86342 156.836 6.60922V6.73632C156.963 6.73632 156.963 6.99052 157.089 6.99052C157.089 7.11762 157.215 7.24471 157.089 7.37181C157.089 7.24471 157.089 7.11762 157.215 7.11762C157.341 7.49891 157.089 7.11762 157.215 7.62601C157.215 7.37181 157.341 7.24471 157.341 7.11762C157.341 6.73632 157.215 7.11762 157.215 7.24471C157.215 7.11762 157.215 6.86342 157.215 6.73632C157.341 6.73632 157.468 6.73632 157.594 6.73632C157.72 6.86342 157.847 6.73632 158.099 6.86342C158.099 6.73632 158.099 6.73632 158.099 6.60922C158.225 6.60922 158.478 6.48212 158.604 6.35503C158.604 6.35503 158.604 6.48212 158.731 6.48212V6.60922V6.48212V6.35503C158.731 6.35503 158.731 6.35503 158.857 6.35503C159.109 6.10083 159.362 5.71953 159.362 5.21114C159.614 5.21114 159.741 5.21114 159.993 5.33824C159.488 5.21114 160.751 5.33824 160.12 4.95694C160.246 4.95694 160.246 4.95694 160.372 4.95694C160.12 4.82985 160.12 4.82985 160.246 4.70275C160.246 4.44855 160.498 4.32145 160.625 4.06726H160.372L160.498 3.94016C160.12 3.94016 160.498 4.06726 159.993 4.06726C160.498 3.94016 159.993 3.68596 160.625 3.55886C160.625 3.43176 160.372 3.68596 160.246 3.55886H160.372H160.12C160.12 3.43176 160.372 3.43176 160.498 3.43176C160.625 3.55886 160.246 3.43176 160.246 3.43176ZM153.679 2.92337C153.679 2.92337 153.553 2.79627 153.679 2.79627C153.806 2.92337 153.679 2.92337 153.679 2.92337ZM153.932 4.95694C153.932 4.82985 153.932 4.95694 153.932 4.95694C154.058 4.82985 154.058 4.82985 153.932 4.95694Z" fill="#EF7D6B"/>
<path d="M157.468 7.62592V7.49883C157.468 7.49883 157.468 7.37173 157.342 7.24463L157.468 7.62592Z" fill="#EF7D6B"/>
<path d="M157.342 7.88017C157.342 7.75307 157.468 7.75307 157.342 7.62598C157.342 7.62598 157.215 7.88017 157.342 7.88017Z" fill="#EF7D6B"/>
<path d="M154.816 7.37158C154.69 7.37158 154.69 7.37158 154.437 7.62578C154.437 7.87997 154.69 7.37158 154.69 7.62578C154.816 7.49868 154.69 7.37158 154.816 7.37158Z" fill="#EF7D6B"/>
<path d="M153.68 1.90649L153.932 2.03359L153.68 1.90649Z" fill="#EF7D6B"/>
<path d="M154.185 0.762695C154.185 0.762695 154.185 0.889794 154.058 0.889794C154.185 0.762695 154.437 1.14399 154.185 0.762695Z" fill="#EF7D6B"/>
<path d="M170.727 7.11758V6.99048C170.601 6.99048 170.601 7.11758 170.727 7.11758Z" fill="#F8B3A2"/>
<path d="M168.328 7.88013L168.201 8.26142C168.328 8.13432 168.328 8.00723 168.328 7.88013Z" fill="#F8B3A2"/>
<path d="M172.748 2.92334L171.737 3.05044C172.116 3.05044 172.495 3.05044 173 3.05044C172.621 2.92334 172.621 2.92334 172.748 2.92334Z" fill="#F8B3A2"/>
<path d="M172.747 4.3214C171.99 4.1943 172.242 4.0672 172.116 3.9401C172.369 3.9401 172.621 4.0672 172.495 4.1943C173.126 4.1943 171.611 3.813 172.116 3.813C172.116 3.813 172.116 3.813 172.242 3.813C171.99 3.6859 172.242 3.6859 172.369 3.6859C172.495 3.55881 172.369 3.17751 171.737 3.17751H172.621C172.116 3.05041 171.611 3.05041 171.106 3.05041C171.106 3.05041 171.106 3.05041 171.106 2.92331C171.737 2.79622 172.369 2.79622 172.621 2.79622C172.747 2.79622 172.747 2.66912 172.621 2.66912C172.495 2.66912 171.863 2.79622 171.737 2.79622C172.369 2.66912 172.116 2.66912 172.495 2.41492C172.495 2.54202 171.737 2.66912 171.737 2.54202C171.863 2.54202 172.621 2.28782 172.621 2.28782C172.369 2.28782 171.99 2.28782 171.737 2.28782C171.863 2.28782 172.495 2.16072 172.621 2.03363C172.495 2.03363 172.621 1.90653 172.495 1.90653L172.369 2.03363C172.369 1.77943 171.232 2.28782 171.232 2.16072C171.358 2.16072 172.242 1.77943 172.369 1.65233C172.116 1.65233 171.611 1.90653 170.979 2.16072V2.03363C171.485 1.77943 172.116 1.52523 172.369 1.52523C172.495 1.39813 172.621 1.39813 172.621 1.27104C172.747 1.14394 173 1.14394 173 1.14394V0.889741C172.621 1.14394 172.495 1.01684 172.116 1.27104C172.242 1.27104 172.495 1.27104 172.747 1.27104C172.242 1.52523 171.358 1.77943 171.485 1.65233C171.611 1.52523 172.242 1.14394 172.369 1.14394C172.242 1.27104 171.99 1.14394 172.116 1.14394L172.369 1.01684C172.495 0.762643 171.737 1.27104 171.99 0.889741C171.99 0.889741 172.369 0.381348 172.116 0.508446C171.863 0.762643 171.232 1.27104 170.727 1.77943C170.727 1.77943 170.727 1.65233 170.601 1.65233L170.727 1.52523L170.601 1.65233C170.853 1.27104 171.358 1.01684 171.611 0.762643C171.485 0.889741 171.358 0.889741 171.358 1.01684C171.358 0.889741 171.737 0.762643 171.611 0.762643C171.232 1.14394 171.485 0.635544 171.232 1.01684C171.106 1.01684 171.232 0.889741 171.106 0.762643C170.979 0.889741 170.601 1.27104 170.348 1.52523C170.222 1.39813 170.348 1.14394 170.222 1.14394C170.222 1.01684 170.348 0.889741 170.474 0.635544C170.474 0.635544 170.348 0.889741 170.222 0.889741C170.348 0.508446 170.348 0.889741 170.601 0.381348C170.474 0.635544 170.222 0.635544 170.096 0.762643C169.969 1.14394 170.222 0.889741 170.348 0.762643C170.222 0.889741 170.096 1.14394 169.969 1.27104C169.843 1.27104 169.717 1.14394 169.717 1.14394C169.717 0.889741 169.464 1.01684 169.464 0.762643C169.464 0.889741 169.338 1.01684 169.338 1.01684C169.212 1.01684 168.959 0.889741 168.833 0.889741V0.762643V0.889741C168.833 0.762643 168.833 0.635544 168.833 0.635544C168.833 0.762643 168.833 0.762643 168.833 0.889741H168.706H168.58C168.075 1.01684 167.696 1.27104 167.444 1.77943C167.191 1.65233 167.065 1.39813 166.812 1.27104C167.191 1.77943 166.055 0.762643 166.56 1.52523C166.433 1.39813 166.433 1.27104 166.307 1.27104C166.433 1.52523 166.56 1.65233 166.307 1.52523C166.181 1.77943 165.928 1.65233 165.55 1.90653L165.928 2.03363C165.802 2.03363 165.676 2.03363 165.676 2.03363C166.181 2.41492 165.802 1.90653 166.307 2.28782C165.55 2.03363 166.181 2.66912 165.297 2.41492C165.297 2.54202 165.676 2.54202 165.676 2.66912H165.423L165.676 2.79622C165.676 2.79622 165.297 2.79622 165.171 2.79622V2.66912C164.918 2.66912 165.171 2.92331 165.044 2.92331L165.171 2.79622C165.297 3.17751 164.918 3.55881 165.423 3.813H165.55C165.802 4.0672 165.297 3.9401 165.55 4.1943C165.676 4.1943 165.802 4.3214 165.802 4.3214C165.55 4.3214 165.423 4.44849 165.171 4.44849C165.55 4.70269 165.423 4.57559 166.055 4.57559L165.802 4.70269C166.055 4.70269 166.181 4.70269 166.307 4.70269C166.055 4.70269 165.928 4.82979 165.55 4.82979C165.044 5.33818 166.307 4.95689 165.423 5.33818C166.181 5.08399 165.802 4.95689 165.928 4.95689C166.181 4.82979 166.433 4.82979 166.433 4.95689C166.433 4.95689 165.55 5.46528 165.676 5.71948C165.55 5.84658 165.928 5.71948 165.802 5.97367C166.181 5.71948 165.802 6.10077 166.307 5.71948H166.055C166.181 5.71948 166.812 5.33818 166.686 5.71948C166.56 5.71948 166.433 5.84658 166.307 5.84658C166.181 5.97367 166.433 5.84657 166.307 5.97367C165.802 6.35497 166.055 5.84658 165.676 6.10077C165.55 6.22787 166.181 5.97367 165.55 6.35497C166.307 5.97367 165.55 6.60917 166.181 6.35497L165.928 6.60916C165.928 6.60916 166.181 6.48207 166.181 6.60916L165.802 6.86336C166.181 6.73626 165.676 7.24466 165.928 7.24466C165.802 7.11756 166.181 6.86336 166.307 6.60916C166.812 6.48207 165.802 7.37176 166.181 7.49885C166.055 7.49885 166.181 7.24466 166.307 7.11756C166.307 7.24466 166.307 7.37176 166.181 7.49885C166.433 7.62595 166.307 7.11756 166.56 7.11756C166.307 7.49885 166.686 6.99046 166.939 6.99046L166.686 7.24466C166.812 7.62595 167.191 6.60917 167.191 6.99046L166.686 6.86336H166.812L166.56 7.24466C166.812 6.99046 166.812 7.11756 166.939 7.24466C167.065 6.99046 167.191 6.60917 167.317 6.73626C167.317 6.99046 167.191 6.99046 167.317 6.99046C167.191 7.11756 167.065 7.37176 167.191 7.11756L166.939 7.37176C166.939 7.62595 167.191 7.49885 167.191 7.49885C167.191 7.49885 167.191 7.49885 167.191 7.37176C167.317 7.24466 167.444 7.11756 167.57 6.99046C167.57 7.11756 167.444 7.24466 167.444 7.37176C167.444 7.37176 167.57 7.24466 167.696 7.11756C167.57 7.37176 167.57 7.62595 167.317 7.75305C167.444 7.62595 167.57 7.62595 167.696 7.49885C167.696 7.62595 167.696 7.88015 167.696 8.00725C167.823 8.26144 168.201 7.49885 168.328 7.75305C168.328 7.75305 168.328 7.62595 168.454 7.62595C168.58 7.75305 168.706 8.13435 168.959 7.62595L169.085 8.13435C169.212 8.00725 168.833 7.49885 169.085 7.24466C169.212 6.99046 169.212 7.75305 169.212 7.88015C169.338 7.62595 169.338 6.99046 169.59 7.49885C169.717 7.62595 169.717 7.49885 169.59 7.62595L169.717 7.88015C169.717 8.38854 169.464 8.26144 169.717 8.64274C169.59 7.62595 170.222 8.38854 169.969 7.37176L170.096 7.49885C170.474 7.88015 169.969 6.73626 170.222 6.86336C170.348 6.86336 170.348 6.99046 170.348 7.11756V6.86336L170.474 6.99046L170.601 6.86336L170.474 6.48207C170.601 6.60917 170.474 6.60917 170.601 6.73626V6.48207C170.727 6.73626 170.853 6.99046 170.727 6.99046C171.358 7.75305 170.727 6.73626 171.232 7.11756V7.24466C171.611 7.62595 171.611 7.49885 171.99 7.62595C171.863 7.49885 171.232 7.11756 171.232 6.73626C171.358 6.73626 171.358 6.73626 171.232 6.60916C171.485 6.86336 171.485 6.73626 171.485 6.73626L171.737 7.11756C171.737 6.99046 171.611 6.73626 171.485 6.60916C171.611 6.60916 171.863 6.86336 172.116 6.99046C172.242 6.99046 171.611 6.60917 171.737 6.48207C171.99 6.48207 171.863 6.35497 171.737 5.97367C171.863 5.97367 171.99 6.22787 172.116 6.22787L171.737 5.84658L171.863 5.97367C171.737 5.84657 171.485 5.59238 171.485 5.46528C171.106 5.08399 172.242 5.84658 171.863 5.33818C171.99 5.33818 172.116 5.46528 172.242 5.59238L172.116 5.46528V5.33818L171.99 5.21108L171.737 4.95689L172.116 5.08399C171.737 4.95689 171.485 4.70269 171.106 4.44849H170.979C170.979 4.44849 170.979 4.44849 170.979 4.3214C171.106 4.44849 171.232 4.44849 171.485 4.57559L171.232 4.44849C171.485 4.57559 171.737 4.82979 171.99 4.95689C171.99 4.95689 172.116 4.95689 172.116 5.08399C172.116 5.08399 172.116 5.08399 171.99 4.95689L172.495 5.21108L172.369 5.08399C172.495 5.08399 172.621 5.08399 172.747 5.08399C172.369 4.70269 171.611 4.3214 171.485 4.0672C171.863 4.1943 172.116 4.1943 172.621 4.44849C172.116 4.3214 172.747 4.70269 172.621 4.82979C172.747 4.82979 172.874 4.82979 173 4.95689C172.874 4.82979 172.747 4.70269 172.621 4.57559C172.621 4.3214 172.621 4.3214 172.747 4.3214ZM167.823 5.33818C167.823 5.33818 167.823 5.46528 167.823 5.33818C167.823 5.46528 167.823 5.46528 167.823 5.33818ZM170.979 6.86336C170.727 6.48207 170.853 6.73626 170.979 6.73626C171.106 6.73626 171.106 6.99046 170.979 6.86336ZM171.737 4.57559C171.611 4.57559 171.611 4.57559 171.737 4.57559V4.57559Z" fill="#F8B3A2"/>
<path d="M171.99 4.95693L171.864 4.82983C171.864 4.95693 171.99 4.95693 171.99 4.95693Z" fill="#F8B3A2"/>
<path d="M171.485 0.635399L171.611 0.508301C171.611 0.508301 171.611 0.635399 171.485 0.635399Z" fill="#F8B3A2"/>
<path d="M168.959 0.635498V0.762596H169.085L168.959 0.635498Z" fill="#F8B3A2"/>
<path d="M169.843 0.254296C169.843 0.381394 169.843 0.381394 169.717 0.508492L169.969 0.127197L169.843 0.254296Z" fill="#F8B3A2"/>
<path d="M170.348 0C170.222 0.127098 170.222 0.127098 170.222 0.254197C170.222 0.127098 170.474 0 170.348 0Z" fill="#F8B3A2"/>
<path d="M172.747 1.65217C172.495 1.65217 172.621 1.77927 172.495 1.77927C172.747 1.77927 172.621 1.90636 173.126 1.65217C173.126 1.52507 172.495 1.77927 172.747 1.65217Z" fill="#F8B3A2"/>
<path d="M171.863 7.24453C171.737 7.11743 171.737 7.11743 171.611 7.11743L171.863 7.24453Z" fill="#F8B3A2"/>
<path d="M170.474 7.75288L170.222 7.37158L170.474 7.75288Z" fill="#F8B3A2"/>
<path d="M169.212 8.64263L169.338 8.51553C169.338 8.64263 169.212 8.00714 169.212 8.64263Z" fill="#F8B3A2"/>
<path d="M22.73 1.65234V31.9017H18.6891V4.8298H4.79863V31.9017H0.884033V1.65234H22.73Z" fill="#EE4043"/>
<path d="M38.2621 29.3597C42.0504 29.3597 44.8285 25.8009 44.8285 20.8441C44.8285 17.1582 42.9343 12.4556 38.3884 12.4556C33.8424 12.4556 31.8219 16.7769 31.8219 20.9712C31.8219 25.8009 34.4738 29.3597 38.2621 29.3597ZM38.0095 32.41C32.2008 32.41 27.6548 28.0887 27.6548 21.2254C27.6548 13.9808 32.4533 9.65942 38.3884 9.65942C44.576 9.65942 48.7431 14.235 48.7431 20.8441C48.8694 28.8513 43.1869 32.41 38.0095 32.41Z" fill="#EE4043"/>
<path d="M57.7088 10.0408V19.446H58.5927L66.6745 10.0408H71.473L62.0022 19.8273C65.538 20.2086 67.6847 22.6235 69.3263 26.4365C69.9577 27.8345 70.5891 29.9952 71.5993 31.7746H67.5584C66.927 30.8849 66.2956 29.1055 65.538 27.3261C64.0227 23.7674 62.0022 22.2422 58.4665 22.2422H57.7088V31.7746H53.7942V10.0408H57.7088Z" fill="#EE4043"/>
<path d="M90.2884 31.0121C89.2781 31.5205 87.0051 32.2831 84.1008 32.2831C77.5343 32.2831 73.3672 27.8346 73.3672 21.0984C73.3672 14.3622 77.9132 9.53247 84.9847 9.53247C87.2577 9.53247 89.4044 10.0409 90.4146 10.6764L89.5307 13.7267C88.5205 13.2183 87.1314 12.7099 84.9847 12.7099C80.0599 12.7099 77.2818 16.3958 77.2818 20.9713C77.2818 26.0553 80.4387 29.1056 84.8584 29.1056C87.1314 29.1056 88.5205 28.5972 89.657 28.0888L90.2884 31.0121Z" fill="#EE4043"/>
<path d="M98.8752 1.65234V15.1248H100.138L110.493 1.65234H115.165L103.8 15.5061C108.851 16.1416 110.745 19.1919 112.261 23.3862C113.397 26.4365 114.281 29.2327 115.544 32.0288H111.377C110.24 29.9953 109.483 27.3262 108.599 24.9113C107.21 20.8442 105.315 18.1751 100.264 18.1751H99.0015V32.0288H95.0869V1.65234H98.8752Z" fill="#231F20"/>
<path d="M136.632 10.0408V31.7746H132.717V13.2182H125.267V18.8106C125.267 24.9113 124.636 28.9784 121.858 30.8849C120.721 31.7746 119.585 32.283 117.564 32.283L117.185 29.2326C117.943 29.1055 118.827 28.7242 119.332 28.3429C121.352 26.8177 121.605 23.7674 121.605 18.9377V10.1679L136.632 10.0408Z" fill="#231F20"/>
<path d="M146.861 10.0408H142.946V31.7746H146.861V10.0408Z" fill="#231F20"/>
<path d="M157.215 10.0408V18.8106H167.444V10.0408H171.358V31.9017H167.444V21.988H157.215V31.9017H153.301V10.0408H157.215Z" fill="#231F20"/>
<path d="M3.15693 35.8418C2.14672 37.4941 1.26277 40.036 1.26277 43.4677C1.26277 46.8994 2.14672 49.4413 3.15693 51.0936H2.02044C1.01022 49.6955 0 47.1535 0 43.4677C0 39.7818 1.1365 37.2399 2.02044 35.8418H3.15693Z" fill="#231F20"/>
<path d="M4.79858 36.4773C5.42997 36.3502 6.06136 36.2231 6.9453 36.2231C8.0818 36.2231 9.09201 36.4773 9.7234 37.1128C10.3548 37.7483 10.6073 38.638 10.6073 39.7819C10.6073 40.9258 10.3548 41.6884 9.84968 42.3239C9.21829 43.2136 7.95552 43.7219 6.81902 43.7219C6.56647 43.7219 6.44019 43.7219 6.18764 43.7219V48.933H4.79858V36.4773ZM6.18764 42.451C6.31391 42.451 6.56647 42.451 6.69274 42.451C8.0818 42.451 9.09201 41.5613 9.09201 39.6548C9.09201 38.3838 8.58691 37.2399 6.9453 37.2399C6.56647 37.2399 6.31391 37.2399 6.18764 37.367V42.451Z" fill="#231F20"/>
<path d="M17.6789 44.3574C17.6789 47.9162 16.0373 49.0601 14.6483 49.0601C13.0067 49.0601 11.7439 47.5349 11.7439 44.3574C11.7439 41.0529 13.2592 39.6548 14.7746 39.6548C16.4162 39.6548 17.6789 41.18 17.6789 44.3574ZM13.1329 44.3574C13.1329 45.8826 13.3855 47.9162 14.6483 47.9162C15.911 47.9162 16.1636 45.7555 16.1636 44.3574C16.1636 42.9593 15.911 40.7987 14.6483 40.7987C13.3855 40.7987 13.1329 42.9593 13.1329 44.3574Z" fill="#231F20"/>
<path d="M20.0781 39.7819L20.962 41.6884C21.2146 42.1967 21.3408 42.7051 21.5934 43.3406C21.846 42.7051 21.9722 42.1967 22.2248 41.6884L23.1087 39.7819H24.6241L22.4773 44.2303L24.6241 48.8059H23.1087L22.2248 46.7723C21.9722 46.2639 21.846 45.7555 21.5934 45.2471C21.4671 45.7555 21.2146 46.2639 20.962 46.7723L20.0781 48.8059H18.5627L20.7095 44.2303L18.5627 39.6548H20.0781V39.7819Z" fill="#231F20"/>
<path d="M31.3169 48.6787C30.938 48.9329 30.3067 49.06 29.549 49.06C27.0234 49.06 25.3818 47.0264 25.3818 42.7051C25.3818 37.7482 27.9074 36.0959 29.8015 36.0959C30.5592 36.0959 31.0643 36.223 31.3169 36.4772L30.938 37.7482C30.6855 37.6211 30.3067 37.494 29.6753 37.494C28.2862 37.494 26.7709 38.765 26.7709 42.7051C26.7709 46.6451 28.1599 47.9161 29.6753 47.9161C30.1804 47.9161 30.6855 47.789 31.0643 47.6619L31.3169 48.6787Z" fill="#231F20"/>
<path d="M32.7058 35.8418H34.0949V48.9329H32.7058V35.8418Z" fill="#231F20"/>
<path d="M37.7569 37.4941C37.7569 38.0025 37.3781 38.3838 36.873 38.3838C36.3678 38.3838 35.989 38.0025 35.989 37.4941C35.989 36.9857 36.3678 36.6044 36.873 36.6044C37.5043 36.4773 37.7569 36.8586 37.7569 37.4941ZM36.2416 48.933V39.7819H37.6306V48.933H36.2416Z" fill="#231F20"/>
<path d="M39.6512 42.1968C39.6512 41.18 39.6512 40.5445 39.5249 39.7819H40.7877L40.914 40.9258C41.2928 40.1632 42.0504 39.6548 42.9344 39.6548C44.1972 39.6548 45.0811 40.5445 45.0811 42.8322V48.933H43.6921V43.0864C43.6921 42.0697 43.4395 40.9258 42.4293 40.9258C41.7979 40.9258 41.2928 41.4342 41.0402 42.4509C41.0402 42.7051 41.0402 42.9593 41.0402 43.2135V48.933H39.6512V42.1968Z" fill="#231F20"/>
<path d="M46.7227 51.2208C47.7329 49.5685 48.6168 46.8995 48.6168 43.5949C48.6168 40.1632 47.7329 37.6213 46.7227 35.969H47.8592C48.8694 37.3671 49.8796 39.909 49.8796 43.5949C49.8796 47.2807 48.7431 49.8227 47.8592 51.2208H46.7227Z" fill="#231F20"/>
<path d="M61.7496 42.4509C61.7496 47.1535 60.108 49.06 58.0875 49.06C55.9408 49.06 54.5518 46.7722 54.5518 42.578C54.5518 38.3837 56.0671 36.0959 58.2138 36.0959C60.3605 36.0959 61.7496 38.3837 61.7496 42.4509ZM56.0671 42.578C56.0671 45.247 56.5722 47.789 58.2138 47.789C59.8554 47.789 60.2342 44.9928 60.2342 42.578C60.2342 40.1631 59.8554 37.3669 58.2138 37.3669C56.5722 37.3669 56.0671 40.036 56.0671 42.578Z" fill="#231F20"/>
<path d="M64.149 39.7819L65.0329 41.6884C65.2855 42.1967 65.4118 42.7051 65.6643 43.3406C65.9169 42.7051 66.0431 42.1967 66.2957 41.6884L67.1796 39.7819H68.695L66.5483 44.2303L68.695 48.8059H66.9271L66.0431 46.7723C65.7906 46.2639 65.6643 45.7555 65.4118 45.2471C65.2855 45.7555 65.0329 46.2639 64.7804 46.7723L63.8964 48.8059H62.3811L64.5278 44.2303L62.3811 39.6548H64.149V39.7819Z" fill="#231F20"/>
<path d="M75.2612 44.3574C75.2612 47.9162 73.6196 49.0601 72.2306 49.0601C70.5889 49.0601 69.3262 47.5349 69.3262 44.3574C69.3262 41.0529 70.8415 39.6548 72.3568 39.6548C73.9984 39.6548 75.2612 41.18 75.2612 44.3574ZM70.7152 44.3574C70.7152 45.8826 70.9678 47.9162 72.2306 47.9162C73.4933 47.9162 73.7459 45.7555 73.7459 44.3574C73.7459 42.9593 73.4933 40.7987 72.2306 40.7987C70.9678 40.7987 70.7152 42.9593 70.7152 44.3574Z" fill="#231F20"/>
<path d="M82.0802 39.7817V48.9328H80.6911V41.0527H78.6707V43.976C78.6707 46.5179 78.5444 48.2973 77.1554 48.9328C76.9028 49.0599 76.524 49.187 76.1451 49.187L75.8926 48.0431C76.2714 47.916 76.524 47.7889 76.6502 47.6618C77.1554 47.1534 77.2816 45.8825 77.2816 44.2302V40.0359H82.0802V39.7817Z" fill="#231F20"/>
<path d="M89.657 44.3574C89.657 47.9162 88.0154 49.0601 86.6263 49.0601C84.9847 49.0601 83.7219 47.5349 83.7219 44.3574C83.7219 41.0529 85.2372 39.6548 86.7526 39.6548C88.2679 39.6548 89.657 41.18 89.657 44.3574ZM85.111 44.3574C85.111 45.8826 85.3635 47.9162 86.6263 47.9162C87.8891 47.9162 88.1416 45.7555 88.1416 44.3574C88.1416 42.9593 87.8891 40.7987 86.6263 40.7987C85.3635 40.7987 85.111 42.9593 85.111 44.3574Z" fill="#231F20"/>
<path d="M96.8548 39.7817V47.7889H97.6125L97.4862 51.3477H96.3497L96.2234 48.9328H91.5512L91.4249 51.3477H90.2884L90.1621 47.7889H90.7935C91.1723 47.1534 91.4249 46.5179 91.6774 45.8825C91.93 44.8657 92.0563 43.7218 92.0563 42.4508V39.7817H96.8548ZM93.4453 42.3237C93.4453 43.5947 93.319 44.8657 93.0665 45.8825C92.9402 46.5179 92.6877 47.1534 92.3088 47.7889H95.3395V40.9256H93.4453V42.3237Z" fill="#231F20"/>
<path d="M99.8855 39.7819L102.032 43.849H102.285V39.7819H103.674V43.849H104.053L106.199 39.7819H107.841L105.189 43.9761C106.326 44.2303 106.957 45.2471 107.21 46.5181C107.462 47.4078 107.715 48.4246 107.967 48.933H106.578C106.326 48.5517 106.199 47.7891 105.947 46.8994C105.568 45.3742 104.937 44.7387 103.926 44.7387H103.8V48.8059H102.411V44.7387H102.285C101.022 44.7387 100.643 45.3742 100.264 46.8994C100.138 47.662 99.8855 48.2975 99.6329 48.8059H98.2439C98.4965 48.1704 98.749 47.1536 99.0016 46.391C99.3804 45.2471 99.8855 44.1032 101.022 43.849L98.3702 39.6548H99.8855V39.7819Z" fill="#231F20"/>
<path d="M109.861 39.7819L110.998 44.9929C111.124 45.7555 111.25 46.2639 111.377 46.8994C111.503 46.391 111.629 45.7555 111.755 44.9929L112.766 39.7819H114.155L112.639 45.6284C112.134 47.9162 111.503 50.0768 110.366 51.4749C109.735 52.2375 109.104 52.7459 108.725 52.873L108.22 51.602C108.599 51.3478 109.104 50.9665 109.483 50.4581C109.861 49.9497 110.114 49.3143 110.366 48.933C110.493 48.6788 110.493 48.5517 110.493 48.4246C110.493 48.2975 110.493 48.1704 110.493 48.0433L108.22 39.6548H109.861V39.7819Z" fill="#231F20"/>
<path d="M116.933 39.7819V43.5948H118.069C118.322 40.7987 119.585 39.6548 120.974 39.6548C122.489 39.6548 123.752 41.18 123.752 44.3574C123.752 47.9162 122.236 49.0601 120.847 49.0601C119.332 49.0601 118.196 47.662 118.069 44.7387H116.933V48.8059H115.544V39.6548H116.933V39.7819ZM122.363 44.3574C122.363 42.9593 122.11 40.7987 120.974 40.7987C119.837 40.7987 119.585 42.9593 119.585 44.3574C119.585 45.8826 119.837 47.9162 121.1 47.9162C122.11 47.9162 122.363 45.7555 122.363 44.3574Z" fill="#231F20"/>
<path d="M126.656 39.7817V43.2134C126.656 44.1031 126.909 44.8657 127.919 44.8657C128.424 44.8657 128.929 44.6115 129.308 44.4844V39.7817H130.697V48.9328H129.308V45.5012C128.929 45.7554 128.171 46.0096 127.54 46.0096C126.151 46.0096 125.267 45.1199 125.267 43.4676V39.7817H126.656Z" fill="#231F20"/>
<path d="M134.107 39.7817V42.9592C134.107 44.4844 134.107 45.8825 133.98 47.2805C134.359 46.1367 134.864 44.7386 135.369 43.7218L136.885 39.7817H138.4V48.9328H137.011V45.8825C137.011 43.8489 137.011 42.8321 137.137 41.434C136.758 42.5779 136.38 43.5947 136.001 44.6115C135.748 45.3741 134.864 47.4076 134.233 48.9328H132.718V39.7817H134.107Z" fill="#231F20"/>
<path d="M141.683 39.7817V42.9592C141.683 44.4844 141.683 45.8825 141.557 47.2806C141.936 46.1367 142.441 44.7386 142.946 43.7218L144.461 39.7817H145.977V48.9328H144.588V45.8825C144.588 43.8489 144.588 42.8321 144.714 41.434C144.335 42.5779 144.083 43.5947 143.577 44.6115C143.325 45.3741 142.441 47.4076 141.81 48.9328H140.294V39.7817H141.683ZM142.062 36.3501C142.188 37.1127 142.441 37.6211 143.199 37.6211C143.956 37.6211 144.209 37.1127 144.335 36.3501H145.345C145.219 37.8753 144.461 38.3837 143.199 38.3837C142.062 38.3837 141.304 37.7482 141.052 36.3501H142.062Z" fill="#231F20"/>
<path d="M151.28 39.7817H152.922L154.058 43.8489C154.437 44.8657 154.563 45.6283 154.942 46.7721C155.195 45.6283 155.447 44.9928 155.7 43.8489L156.836 39.7817H158.604L159.236 48.9328H157.847L157.72 44.9928C157.72 43.8489 157.594 42.9592 157.594 41.1798C157.342 42.0695 157.089 43.3405 156.71 44.7386L155.447 48.9328H154.437L153.301 44.8657C152.922 43.5947 152.669 42.3237 152.417 41.1798C152.417 42.5779 152.417 43.8489 152.29 45.1199L152.164 48.9328H150.775L151.28 39.7817Z" fill="#231F20"/>
<path d="M161.761 39.7819L162.898 44.9929C163.024 45.7555 163.15 46.2639 163.277 46.8994C163.403 46.391 163.529 45.7555 163.655 44.9929L164.666 39.7819H166.055L164.539 45.6284C164.034 47.9162 163.403 50.0768 162.266 51.4749C161.635 52.2375 161.004 52.7459 160.625 52.873L160.12 51.602C160.498 51.3478 161.004 50.9665 161.382 50.4581C161.761 49.9497 162.014 49.3143 162.266 48.933C162.393 48.6788 162.393 48.5517 162.393 48.4246C162.393 48.2975 162.393 48.1704 162.393 48.0433L160.12 39.6548H161.761V39.7819Z" fill="#231F20"/>
<path d="M171.863 48.6786C171.485 48.8057 170.98 49.0599 170.348 49.0599C168.328 49.0599 167.065 47.4076 167.065 44.4844C167.065 41.8153 168.328 39.7817 170.601 39.7817C171.106 39.7817 171.611 39.9088 171.863 40.0359L171.611 41.1798C171.485 41.0527 171.106 40.9256 170.601 40.9256C169.212 40.9256 168.454 42.705 168.454 44.4844C168.454 46.645 169.212 47.916 170.601 47.916C170.98 47.916 171.358 47.7889 171.611 47.6618L171.863 48.6786Z" fill="#231F20"/>
</g>
<defs>
<clipPath id="clip0_4_1069">
<rect width="173" height="53" fill="white"/>
</clipPath>
</defs>
</svg>
