<svg width="238" height="44" viewBox="0 0 238 44" fill="none" xmlns="http://www.w3.org/2000/svg">
<path d="M203.429 6.64093C203.603 6.81569 203.603 6.99045 203.777 7.16521C203.429 6.99045 202.734 6.64093 202.908 6.46617C203.082 6.46617 203.603 6.64093 203.777 6.81569C203.603 6.81569 203.603 6.64093 203.603 6.64093L203.777 6.81569C203.95 6.81569 203.255 6.46617 203.777 6.46617C203.777 6.46617 204.298 6.46617 204.124 6.29141C203.777 6.29141 203.255 6.11665 202.734 6.11665V5.94189H202.908H202.734C203.082 5.94189 203.429 6.11665 203.777 6.11665C203.603 6.11665 203.603 6.11665 203.429 6.11665C203.603 6.11665 203.777 6.11665 203.777 6.11665C203.429 6.11665 203.777 5.94189 203.429 6.11665C203.255 5.94189 203.429 5.94189 203.429 5.94189C203.255 5.94189 202.908 5.94189 202.734 5.94189V5.76713C202.734 5.59237 202.908 5.59237 202.908 5.41761C203.082 5.41761 203.082 5.24285 203.255 5.24285H203.082C203.429 5.06809 203.082 5.41761 203.603 5.24285C203.429 5.24285 203.255 5.24285 203.082 5.06809C202.734 5.24285 203.082 5.24285 203.255 5.24285C203.082 5.24285 202.908 5.24285 202.734 5.24285C202.734 5.06809 202.734 4.89333 202.561 4.71857C202.561 4.54381 202.387 4.36905 202.561 4.19429H202.387C202.387 4.01953 202.213 3.84477 202.039 3.67001C202.039 3.67001 202.039 3.67001 201.866 3.49525C201.866 3.49525 201.866 3.49525 202.039 3.32049H201.866L202.039 3.14573L201.866 3.32049C201.866 3.32049 201.866 3.32049 201.692 3.32049C201.692 3.32049 201.692 3.32049 201.518 3.32049C201.171 2.97097 200.65 2.79621 199.955 2.79621C199.955 2.62145 199.955 2.62145 199.955 2.44669C199.781 2.97097 199.781 1.57289 199.434 2.44669C199.434 2.27193 199.434 2.27193 199.434 2.09717C199.434 2.44669 199.26 2.44669 199.26 2.27193C198.912 2.27193 198.739 2.09717 198.391 2.09717V2.44669L198.218 2.27193C198.218 2.79621 198.391 2.27193 198.391 2.79621C198.218 2.27193 197.87 2.97097 197.696 2.27193C197.523 2.27193 197.87 2.62145 197.696 2.62145V2.44669V2.62145C197.696 2.62145 197.523 2.44669 197.349 2.27193C197.175 2.09717 197.175 2.44669 197.001 2.44669H197.175C197.001 2.79621 196.48 2.79621 196.48 3.32049L196.654 3.49525C196.654 3.84477 196.48 3.49525 196.307 3.84477C196.307 4.01953 196.307 4.01953 196.307 4.01953C196.307 3.84477 195.959 3.84477 195.959 3.67001C195.959 4.01953 195.959 3.84477 196.307 4.36905L196.133 3.49525C196.307 3.67001 196.307 3.67001 196.307 3.84477C196.133 3.67001 195.959 3.67001 195.785 3.49525C195.264 3.49525 195.959 4.01953 195.264 3.84477C195.785 4.19429 195.785 3.84477 195.785 3.84477C195.959 3.84477 196.133 4.19429 196.133 4.19429C196.133 4.19429 195.438 4.01953 195.264 4.19429C195.091 4.19429 195.438 4.36905 195.091 4.36905C195.438 4.54381 195.091 4.54381 195.438 4.54381V4.36905C195.438 4.54381 196.133 4.71857 195.785 4.89333L195.612 4.71857C195.438 4.71857 195.612 4.89333 195.612 4.89333C195.091 4.71857 195.612 4.71857 195.264 4.36905C195.091 4.36905 195.612 4.71857 195.091 4.54381C195.785 4.89333 194.917 4.71857 195.438 5.06809H195.091L195.264 5.24285L194.917 5.06809C195.264 5.24285 194.569 5.24285 194.743 5.41761C194.743 5.06809 195.091 5.41761 195.264 5.24285C195.612 5.59237 194.569 5.41761 194.569 5.76713C194.569 5.76713 194.743 5.59237 194.917 5.59237C194.917 5.59237 194.743 5.76713 194.569 5.76713C194.569 6.11665 194.917 5.76713 195.091 5.76713C194.743 5.94189 195.264 5.94189 195.438 5.94189H195.091C194.917 6.29141 195.785 5.94189 195.612 6.11665H195.264L195.438 6.29141H195.091C195.438 6.46617 195.264 6.46617 195.264 6.64093C195.438 6.64093 195.785 6.46617 195.785 6.64093C195.612 6.81569 195.438 6.64093 195.612 6.81569C195.438 6.81569 195.091 6.81569 195.438 6.64093H195.091C194.917 6.81569 195.091 6.99045 195.091 6.99045C195.091 6.99045 195.091 6.99045 195.091 6.81569C195.264 6.81569 195.438 6.81569 195.612 6.99045C195.612 6.99045 195.438 6.99045 195.264 6.99045H195.438C195.264 6.99045 194.917 7.16521 194.743 7.16521L195.091 7.33997C195.091 7.33997 194.917 7.51473 194.743 7.51473C194.743 7.68949 194.917 7.68949 195.091 7.68949H194.917C194.917 7.86425 195.091 7.68949 195.091 7.68949C195.264 7.68949 195.438 7.68949 195.264 7.86425C195.264 7.86425 195.264 7.86425 195.438 7.86425C195.438 8.03901 195.438 8.38853 195.785 8.38853L195.612 8.73805C195.785 8.73805 195.959 8.21377 196.133 8.38853C196.307 8.38853 195.959 8.73805 195.959 8.91281C195.959 8.91281 196.133 8.91281 196.133 8.73805V8.91281C195.785 9.08757 195.785 8.91282 195.612 9.26234C196.133 8.5633 196.133 9.61186 196.654 8.91281V9.08757C196.654 9.61186 197.175 8.56329 197.175 8.91281C197.175 8.91281 197.175 9.08758 197.175 9.26234L197.349 9.08757V9.26234H197.523L197.87 8.91281C197.87 9.08757 197.87 8.91281 197.87 9.08757L198.044 8.91281C198.044 9.08757 197.87 9.26234 197.87 9.26234C197.696 10.1361 198.044 9.08758 198.218 9.61186H198.044C198.044 10.1361 198.218 9.96138 198.218 10.3109C198.218 10.1361 198.044 9.4371 198.218 9.26234C198.218 9.26234 198.218 9.4371 198.391 9.26234C198.391 9.61186 198.391 9.61186 198.565 9.43709V9.78661C198.739 9.61185 198.739 9.4371 198.739 9.26234C198.912 9.26234 198.912 9.61186 198.912 9.96138C199.086 9.96138 198.912 9.43709 199.086 9.43709C199.26 9.61186 199.26 9.4371 199.607 9.26234C199.781 9.4371 199.607 9.4371 199.607 9.61186L199.781 9.26234V9.43709C199.781 9.26233 199.781 9.08757 199.955 8.91281C199.955 8.38853 200.128 9.61186 200.302 9.08757C200.302 9.26233 200.302 9.26233 200.302 9.43709C200.302 9.43709 200.302 9.26234 200.476 9.26234V9.08757V8.73805L200.65 8.91281C200.476 8.56329 200.476 8.38853 200.65 8.03901V8.38853C200.65 8.56329 200.65 8.73805 200.65 8.91281L200.128 8.73805C200.128 8.91281 200.128 9.26233 200.128 9.43709C200.128 9.43709 200.128 9.4371 200.128 9.26234V9.43709V9.26234L200.302 9.61186V9.43709L200.65 9.61186C200.65 9.08758 200.65 8.38853 200.823 8.21377C200.823 8.56329 200.997 8.73805 201.171 9.08757C200.997 8.73805 200.997 9.26234 200.823 9.26234L200.997 9.43709L201.171 8.91281C201.345 9.26233 201.345 9.08758 201.345 9.26234C200.997 8.73806 201.345 8.73805 201.345 8.56329C201.518 8.73805 201.518 8.91281 201.345 8.91281C201.692 9.26233 201.171 8.21377 201.518 8.38853C201.518 8.38853 201.518 8.38853 201.518 8.56329C201.518 8.38853 201.692 8.38853 201.692 8.56329C201.866 8.56329 202.213 8.21377 201.866 7.86425L202.387 8.38853C202.213 8.03901 201.866 7.68949 201.692 7.33997C202.039 7.68949 202.387 7.86425 202.387 8.21377L201.866 7.68949L202.561 8.56329C202.387 8.38853 202.387 8.21377 202.561 8.21377C202.561 8.21377 202.561 8.21377 202.561 8.38853C202.561 8.38853 202.734 8.38853 202.734 8.21377C202.734 8.21377 202.213 7.86425 202.213 7.68949C202.734 7.86425 202.387 7.86425 202.908 7.86425C202.734 7.86425 202.213 7.33997 202.387 7.33997C202.387 7.33997 202.908 7.68949 202.908 7.86425C202.734 7.68949 202.561 7.51473 202.387 7.33997C202.387 7.51473 202.908 7.68949 203.082 7.68949C202.908 7.68949 203.255 7.51473 203.082 7.51473H202.908C203.082 7.33997 202.213 6.81569 202.213 6.64093C202.387 6.64093 202.908 7.16521 203.082 6.99045C202.908 6.81569 202.561 6.64093 202.039 6.29141V6.11665C202.387 6.29141 202.908 6.64093 203.082 6.81569C203.255 6.81569 203.255 6.81569 203.429 6.81569C203.603 6.81569 203.603 6.99045 203.603 6.99045L203.777 6.81569C203.777 6.99045 203.777 6.81569 203.429 6.64093ZM200.302 9.08757C200.302 9.08757 200.476 9.08757 200.302 9.08757C200.476 9.26233 200.476 9.08757 200.302 9.08757ZM196.133 9.26234C196.307 9.26234 196.307 9.26233 196.307 9.43709C196.307 9.26233 196.307 9.26234 196.133 9.26234ZM197.87 9.78661C197.87 9.61185 197.87 9.61185 197.87 9.78661C197.87 9.78661 197.696 9.96138 197.87 9.78661Z" fill="#EE4043"/>
<path d="M203.082 4.01953C203.082 4.01953 202.908 4.01953 202.908 4.19429L203.082 4.01953Z" fill="#EE4043"/>
<path d="M203.429 4.19413C203.255 4.19413 203.255 4.01937 203.082 4.19413C203.255 4.19413 203.429 4.36889 203.429 4.19413Z" fill="#EE4043"/>
<path d="M203.603 7.51468C203.429 7.33992 203.429 7.51468 203.255 7.51468C203.255 7.68944 203.255 7.68944 203.603 7.8642C203.95 7.68944 203.429 7.51468 203.603 7.51468Z" fill="#EE4043"/>
<path d="M195.264 9.43715C195.264 9.43715 195.438 9.43715 195.438 9.61191C195.264 9.43715 195.612 9.08763 195.264 9.43715Z" fill="#EE4043"/>
<path d="M213.332 0.698975C213.158 0.698975 213.332 0.873735 213.332 1.04849V0.698975Z" fill="#EF7D6B"/>
<path d="M220.454 4.71846L220.281 4.89322C219.933 4.5437 220.107 4.01942 219.412 3.84466L219.238 4.01942C218.891 4.01942 219.238 3.6699 219.064 3.49514C218.891 3.49514 218.717 3.49514 218.717 3.49514C218.891 3.49514 218.891 3.14562 219.238 2.97086C218.717 2.97086 218.891 2.97086 218.37 3.32038L218.543 3.14562C218.37 3.49514 218.196 3.49514 218.196 3.49514C218.37 3.32038 218.37 3.14562 218.717 2.97086C218.891 2.27182 218.022 3.32038 218.37 2.27182C217.848 2.7961 218.37 2.7961 218.196 2.97086C218.022 3.32038 217.675 3.49514 217.675 3.32038C217.675 3.32038 218.196 2.27182 217.848 2.27182C217.848 2.09706 217.501 2.44658 217.675 2.09706C217.501 2.44658 217.501 2.09706 217.327 2.62134H217.501C217.327 2.7961 216.98 3.32038 216.98 2.97086C216.98 2.7961 217.154 2.62134 217.154 2.62134C217.154 2.44658 216.98 2.62134 216.98 2.44658C217.154 1.9223 217.327 2.44658 217.675 2.09706C217.675 1.74754 217.154 2.44658 217.501 1.74754C217.154 2.44658 217.327 1.57278 216.98 2.09706L217.154 1.74754L216.98 1.9223L217.154 1.39802C216.98 1.74754 216.98 0.873739 216.806 1.0485C217.154 1.0485 216.806 1.57278 216.806 1.74754C216.285 2.09706 216.806 0.698979 216.285 0.873739C216.285 0.873739 216.459 1.0485 216.285 1.22326C216.285 1.22326 216.111 1.0485 216.111 0.698979C215.764 0.698979 216.111 1.0485 215.937 1.39802C215.937 0.873739 215.764 1.57278 215.764 1.74754V1.39802C215.416 1.22326 215.764 2.09706 215.416 1.9223L215.59 1.39802L215.416 1.57278V1.0485C215.243 1.39802 215.243 1.22326 215.069 1.22326C215.069 1.39802 215.069 1.9223 215.069 1.9223C214.895 1.74754 215.069 1.57278 214.895 1.57278C214.895 1.39802 214.895 1.0485 215.069 1.39802V1.0485C214.895 0.698979 214.895 1.0485 214.721 1.0485C214.721 1.22326 214.548 1.39802 214.548 1.57278C214.548 1.39802 214.548 1.22326 214.548 1.22326C214.548 1.22326 214.548 1.39802 214.374 1.57278C214.374 1.22326 214.2 0.873739 214.374 0.698979L214.2 1.0485C214.2 0.873739 214.027 0.698979 214.027 0.524218C213.853 0.349458 213.853 1.22326 213.505 1.0485V1.22326C213.332 1.22326 212.984 1.0485 212.984 1.57278L212.463 1.22326C212.463 1.39802 212.984 1.74754 212.81 2.09706C212.81 2.44658 212.463 1.74754 212.289 1.74754C212.289 2.09706 212.637 2.62134 212.116 2.44658C212.116 2.09706 212.289 2.09706 212.289 1.9223L211.942 1.74754C211.768 1.22326 211.942 1.22326 211.594 1.0485C212.289 1.9223 211.073 1.57278 211.942 2.44658H211.768C211.247 2.27182 212.289 3.14562 211.942 3.14562C211.768 3.14562 211.594 3.14562 211.594 2.97086L211.768 3.32038C211.768 3.32038 211.594 3.32038 211.594 3.14562V3.49514L211.942 3.84466C211.768 3.84466 211.942 3.84466 211.768 3.6699L211.942 3.84466C211.594 3.84466 211.421 3.49514 211.594 3.49514C210.552 3.14562 211.768 3.6699 211.073 3.6699V3.49514C210.552 3.32038 210.552 3.49514 210.205 3.49514C210.378 3.49514 211.247 3.49514 211.421 3.84466C211.421 3.84466 211.247 3.84466 211.421 4.01942C211.073 3.84466 211.073 4.01942 211.073 4.01942L210.552 3.84466C210.726 4.01942 210.9 4.01942 211.073 4.19418C211.073 4.36894 210.552 4.19418 210.205 4.19418C210.031 4.36894 210.9 4.19418 210.9 4.5437C210.726 4.71846 210.9 4.89322 211.073 5.06798C210.9 5.06798 210.726 5.06798 210.552 5.06798L210.9 5.24274H210.726C210.9 5.4175 211.247 5.24274 211.421 5.4175C211.942 5.4175 210.552 5.59226 211.247 5.76702C211.073 5.76702 210.9 5.76702 210.726 5.76702C210.9 5.94178 210.9 5.76702 210.9 5.94178H211.073L211.594 6.11654L211.247 6.2913C211.594 6.2913 212.116 6.2913 212.463 6.2913H212.637C212.637 6.2913 212.637 6.29131 212.637 6.46607C212.463 6.46607 212.289 6.46607 212.116 6.46607H212.463C212.116 6.46607 211.768 6.46607 211.421 6.46607H211.594H211.421C211.421 6.46607 211.421 6.46607 211.594 6.46607H211.073H211.247C211.073 6.64083 211.073 6.64083 210.9 6.81559C211.421 6.99035 212.289 6.99035 212.637 7.16511C212.289 7.16511 211.942 7.33987 211.421 7.51463C211.942 7.33987 211.247 7.33987 211.247 7.16511C211.247 7.16511 211.073 7.33987 210.9 7.33987C211.073 7.33987 211.247 7.51463 211.421 7.51463C211.073 7.51463 211.073 7.68939 211.073 7.68939C211.768 7.51463 211.594 7.68939 211.942 7.68939C211.768 7.86415 211.421 7.86415 211.421 7.68939C210.899 8.03891 212.289 7.51463 211.942 7.86415C211.942 7.86415 211.942 8.03891 211.768 8.03891C211.768 8.38843 212.116 8.73795 212.637 8.38843L211.768 8.91271C211.942 8.73795 212.289 8.73795 212.463 8.56319C212.116 8.73795 211.942 8.91271 211.594 9.08747C211.942 8.91271 211.942 8.91271 211.942 9.08747L212.637 8.56319C212.81 8.38843 212.984 8.38843 213.332 8.21367C212.81 8.56319 212.289 9.08747 211.942 9.08747C211.942 9.26223 211.942 9.26223 212.116 9.26223C212.116 9.26223 212.637 8.73795 212.81 8.73795C212.289 9.26223 212.637 9.08747 212.289 9.43699C212.289 9.26223 212.984 8.73795 213.158 8.73795C212.984 8.73795 212.463 9.43699 212.463 9.43699C212.637 9.26223 212.984 9.08747 213.158 8.91271C212.984 8.91271 212.637 9.43699 212.463 9.61175C212.637 9.43699 212.637 9.78651 212.81 9.78651V9.61175C212.984 9.78651 213.853 8.73795 213.853 8.91271C213.679 9.08747 213.158 9.78651 213.158 9.96127C213.332 9.78651 213.679 9.26223 214.2 8.73795C214.2 8.73795 214.374 8.73795 214.374 8.91271C214.027 9.43699 213.505 9.96127 213.332 10.136C213.332 10.3108 213.158 10.3108 213.332 10.4855C213.332 10.6603 213.158 10.6603 212.984 10.6603L213.158 11.0098C213.505 10.4856 213.679 10.6603 213.853 10.3108C213.679 10.4855 213.505 10.4855 213.332 10.6603C213.679 10.136 214.2 9.43699 214.374 9.61175C214.374 9.78651 213.853 10.4855 213.853 10.6603C214.027 10.4855 214.2 10.4855 214.2 10.4855L214.027 10.6603C214.027 10.8351 214.548 10.136 214.374 10.6603C214.374 10.6603 214.374 11.3594 214.374 11.0098C214.374 10.6603 214.721 9.78651 214.895 9.08747C214.895 9.08747 214.895 9.08747 215.069 9.08747V9.26223V9.08747C215.069 9.08747 215.069 9.08747 215.243 9.08747C215.243 9.61175 214.895 10.136 214.895 10.4855C214.895 10.3108 215.069 10.136 215.069 10.136C215.069 10.3108 214.895 10.6603 215.069 10.4855C215.243 9.96127 215.243 10.4855 215.243 9.96127C215.416 9.78651 215.243 10.136 215.416 10.136C215.416 9.78651 215.59 9.43699 215.764 9.08747V9.26223C215.937 9.26223 215.937 9.61175 216.111 9.61175C216.111 9.78651 216.285 9.96127 216.111 10.136C216.111 9.96127 216.111 9.78651 216.285 9.78651C216.459 10.3108 216.111 9.78651 216.285 10.4855C216.285 10.136 216.459 9.96127 216.459 9.78651C216.459 9.26223 216.285 9.78651 216.285 9.96127C216.285 9.78651 216.285 9.43699 216.285 9.26223C216.459 9.26223 216.632 9.26223 216.806 9.26223C216.98 9.43699 217.154 9.26223 217.501 9.43699C217.501 9.26223 217.501 9.26223 217.501 9.08747C217.675 9.08747 218.022 8.91271 218.196 8.73795C218.196 8.73795 218.196 8.91271 218.37 8.91271V9.08747V8.91271V8.73795C218.37 8.73795 218.37 8.73795 218.543 8.73795C218.891 8.38843 219.238 7.86415 219.238 7.16511C219.586 7.16511 219.759 7.16511 220.107 7.33987C219.412 7.16511 221.149 7.33987 220.281 6.81559C220.454 6.81559 220.454 6.81559 220.628 6.81559C220.281 6.64083 220.281 6.64083 220.454 6.46607C220.454 6.11654 220.802 5.94178 220.975 5.59226H220.628L220.802 5.4175C220.281 5.4175 220.802 5.59226 220.107 5.59226C220.802 5.4175 220.107 5.06798 220.975 4.89322C220.975 4.71846 220.628 5.06798 220.454 4.89322H220.628H220.281C220.281 4.71846 220.628 4.71846 220.802 4.71846C220.975 4.89322 220.454 4.71846 220.454 4.71846ZM211.421 4.01942C211.421 4.01942 211.247 3.84466 211.421 3.84466C211.594 4.01942 211.421 4.01942 211.421 4.01942ZM211.768 6.81559C211.768 6.81559 211.768 6.64083 211.768 6.81559C211.942 6.64083 211.942 6.64083 211.768 6.81559Z" fill="#EF7D6B"/>
<path d="M216.632 10.4857V10.3109C216.632 10.3109 216.632 10.1362 216.458 9.96143L216.632 10.4857Z" fill="#EF7D6B"/>
<path d="M216.459 10.8351C216.459 10.6604 216.632 10.6604 216.459 10.4856C216.459 10.4856 216.285 10.8351 216.459 10.8351Z" fill="#EF7D6B"/>
<path d="M212.984 10.136C212.81 10.136 212.81 10.136 212.463 10.4855C212.463 10.835 212.81 10.136 212.81 10.4855C212.984 10.3107 212.81 10.136 212.984 10.136Z" fill="#EF7D6B"/>
<path d="M211.42 2.62134L211.768 2.7961L211.42 2.62134Z" fill="#EF7D6B"/>
<path d="M212.115 1.04858C212.115 1.04858 212.115 1.22334 211.941 1.22334C212.115 1.04858 212.463 1.57286 212.115 1.04858Z" fill="#EF7D6B"/>
<path d="M234.873 9.78658V9.61182C234.699 9.61182 234.699 9.78658 234.873 9.78658Z" fill="#F8B3A2"/>
<path d="M231.572 10.8352L231.398 11.3595C231.572 11.1847 231.572 11.01 231.572 10.8352Z" fill="#F8B3A2"/>
<path d="M237.652 4.01953L236.263 4.19429C236.784 4.19429 237.305 4.19429 238 4.19429C237.479 4.01953 237.479 4.01953 237.652 4.01953Z" fill="#F8B3A2"/>
<path d="M237.653 5.94174C236.61 5.76698 236.958 5.59222 236.784 5.41746C237.132 5.41746 237.479 5.59222 237.305 5.76698C238.174 5.76698 236.089 5.2427 236.784 5.2427C236.784 5.2427 236.784 5.2427 236.958 5.2427C236.61 5.06793 236.958 5.06794 237.132 5.06794C237.305 4.89317 237.132 4.36889 236.263 4.36889H237.479C236.784 4.19413 236.089 4.19413 235.394 4.19413C235.394 4.19413 235.394 4.19413 235.394 4.01937C236.263 3.84461 237.132 3.84461 237.479 3.84461C237.653 3.84461 237.653 3.66985 237.479 3.66985C237.305 3.66985 236.437 3.84461 236.263 3.84461C237.132 3.66985 236.784 3.66985 237.305 3.32033C237.305 3.49509 236.263 3.66985 236.263 3.49509C236.437 3.49509 237.479 3.14557 237.479 3.14557C237.132 3.14557 236.61 3.14557 236.263 3.14557C236.437 3.14557 237.305 2.97081 237.479 2.79605C237.305 2.79605 237.479 2.62129 237.305 2.62129L237.132 2.79605C237.132 2.44653 235.568 3.14557 235.568 2.97081C235.742 2.97081 236.958 2.44653 237.132 2.27177C236.784 2.27177 236.089 2.62129 235.221 2.97081V2.79605C235.916 2.44653 236.784 2.09701 237.132 2.09701C237.305 1.92225 237.479 1.92225 237.479 1.74749C237.653 1.57273 238 1.57273 238 1.57273V1.22321C237.479 1.57273 237.305 1.39797 236.784 1.74749C236.958 1.74749 237.305 1.74749 237.653 1.74749C236.958 2.09701 235.742 2.44653 235.916 2.27177C236.089 2.09701 236.958 1.57273 237.132 1.57273C236.958 1.74749 236.61 1.57273 236.784 1.57273L237.132 1.39797C237.305 1.04845 236.263 1.74749 236.61 1.22321C236.61 1.22321 237.132 0.52417 236.784 0.69893C236.437 1.04845 235.568 1.74749 234.873 2.44653C234.873 2.44653 234.873 2.27177 234.699 2.27177L234.873 2.09701L234.699 2.27177C235.047 1.74749 235.742 1.39797 236.089 1.04845C235.916 1.22321 235.742 1.22321 235.742 1.39797C235.742 1.22321 236.263 1.04845 236.089 1.04845C235.568 1.57273 235.916 0.87369 235.568 1.39797C235.394 1.39797 235.568 1.22321 235.394 1.04845C235.221 1.22321 234.699 1.74749 234.352 2.09701C234.178 1.92225 234.352 1.57273 234.178 1.57273C234.178 1.39797 234.352 1.22321 234.526 0.87369C234.526 0.87369 234.352 1.22321 234.178 1.22321C234.352 0.69893 234.352 1.22321 234.699 0.52417C234.526 0.87369 234.178 0.87369 234.005 1.04845C233.831 1.57273 234.178 1.22321 234.352 1.04845C234.178 1.22321 234.005 1.57273 233.831 1.74749C233.657 1.74749 233.483 1.57273 233.483 1.57273C233.483 1.22321 233.136 1.39797 233.136 1.04845C233.136 1.22321 232.962 1.39797 232.962 1.39797C232.789 1.39797 232.441 1.22321 232.267 1.22321V1.04845V1.22321C232.267 1.04845 232.267 0.87369 232.267 0.87369C232.267 1.04845 232.267 1.04845 232.267 1.22321H232.094H231.92C231.225 1.39797 230.704 1.74749 230.356 2.44653C230.009 2.27177 229.835 1.92225 229.488 1.74749C230.009 2.44653 228.445 1.04845 229.14 2.09701C228.967 1.92225 228.967 1.74749 228.793 1.74749C228.967 2.09701 229.14 2.27177 228.793 2.09701C228.619 2.44653 228.272 2.27177 227.751 2.62129L228.272 2.79605C228.098 2.79605 227.924 2.79605 227.924 2.79605C228.619 3.32033 228.098 2.62129 228.793 3.14557C227.751 2.79605 228.619 3.66985 227.403 3.32033C227.403 3.49509 227.924 3.49509 227.924 3.66985H227.577L227.924 3.84461C227.924 3.84461 227.403 3.84461 227.229 3.84461V3.66985C226.882 3.66985 227.229 4.01937 227.056 4.01937L227.229 3.84461C227.403 4.36889 226.882 4.89317 227.577 5.2427H227.751C228.098 5.59222 227.403 5.41746 227.751 5.76698C227.924 5.76698 228.098 5.94174 228.098 5.94174C227.751 5.94174 227.577 6.1165 227.229 6.1165C227.751 6.46602 227.577 6.29126 228.445 6.29126L228.098 6.46602C228.445 6.46602 228.619 6.46602 228.793 6.46602C228.445 6.46602 228.272 6.64078 227.751 6.64078C227.056 7.33982 228.793 6.81554 227.577 7.33982C228.619 6.9903 228.098 6.81554 228.272 6.81554C228.619 6.64078 228.967 6.64078 228.967 6.81554C228.967 6.81554 227.751 7.51458 227.924 7.8641C227.751 8.03886 228.272 7.8641 228.098 8.21362C228.619 7.8641 228.098 8.38838 228.793 7.8641H228.445C228.619 7.8641 229.488 7.33982 229.314 7.8641C229.14 7.8641 228.967 8.03886 228.793 8.03886C228.619 8.21362 228.967 8.03886 228.793 8.21362C228.098 8.7379 228.445 8.03886 227.924 8.38838C227.751 8.56314 228.619 8.21362 227.751 8.7379C228.793 8.21362 227.751 9.08742 228.619 8.7379L228.272 9.08742C228.272 9.08742 228.619 8.91266 228.619 9.08742L228.098 9.43694C228.619 9.26218 227.924 9.96122 228.272 9.96122C228.098 9.78646 228.619 9.43694 228.793 9.08742C229.488 8.91266 228.098 10.136 228.619 10.3107C228.445 10.3107 228.619 9.96122 228.793 9.78646C228.793 9.96122 228.793 10.136 228.619 10.3107C228.967 10.4855 228.793 9.78646 229.14 9.78646C228.793 10.3107 229.314 9.6117 229.662 9.6117L229.314 9.96122C229.488 10.4855 230.009 9.08742 230.009 9.6117L229.314 9.43694H229.488L229.14 9.96122C229.488 9.6117 229.488 9.78646 229.662 9.96122C229.835 9.6117 230.009 9.08742 230.183 9.26218C230.183 9.6117 230.009 9.6117 230.183 9.6117C230.009 9.78646 229.835 10.136 230.009 9.78646L229.662 10.136C229.662 10.4855 230.009 10.3107 230.009 10.3107C230.009 10.3107 230.009 10.3107 230.009 10.136C230.183 9.96122 230.356 9.78646 230.53 9.6117C230.53 9.78646 230.356 9.96122 230.356 10.136C230.356 10.136 230.53 9.96122 230.704 9.78646C230.53 10.136 230.53 10.4855 230.183 10.6603C230.356 10.4855 230.53 10.4855 230.704 10.3107C230.704 10.4855 230.704 10.835 230.704 11.0098C230.878 11.3593 231.399 10.3107 231.572 10.6603C231.572 10.6603 231.572 10.4855 231.746 10.4855C231.92 10.6603 232.094 11.1845 232.441 10.4855L232.615 11.1845C232.788 11.0098 232.267 10.3107 232.615 9.96122C232.788 9.6117 232.789 10.6603 232.789 10.835C232.962 10.4855 232.962 9.6117 233.31 10.3107C233.483 10.4855 233.483 10.3107 233.31 10.4855L233.483 10.835C233.483 11.5341 233.136 11.3593 233.483 11.8836C233.31 10.4855 234.178 11.5341 233.831 10.136L234.005 10.3107C234.526 10.835 233.831 9.26218 234.178 9.43694C234.352 9.43694 234.352 9.6117 234.352 9.78646V9.43694L234.526 9.6117L234.699 9.43694L234.526 8.91266C234.699 9.08742 234.526 9.08742 234.699 9.26218V8.91266C234.873 9.26218 235.047 9.6117 234.873 9.6117C235.742 10.6603 234.873 9.26218 235.568 9.78646V9.96122C236.089 10.4855 236.089 10.3107 236.61 10.4855C236.437 10.3107 235.568 9.78646 235.568 9.26218C235.742 9.26218 235.742 9.26218 235.568 9.08742C235.916 9.43694 235.916 9.26218 235.916 9.26218L236.263 9.78646C236.263 9.6117 236.089 9.26218 235.916 9.08742C236.089 9.08742 236.437 9.43694 236.784 9.6117C236.958 9.6117 236.089 9.08742 236.263 8.91266C236.61 8.91266 236.437 8.7379 236.263 8.21362C236.437 8.21362 236.61 8.56314 236.784 8.56314L236.263 8.03886L236.437 8.21362C236.263 8.03886 235.916 7.68934 235.916 7.51458C235.394 6.9903 236.958 8.03886 236.437 7.33982C236.61 7.33982 236.784 7.51458 236.958 7.68934L236.784 7.51458V7.33982L236.61 7.16506L236.263 6.81554L236.784 6.9903C236.263 6.81554 235.916 6.46602 235.394 6.1165H235.221C235.221 6.1165 235.221 6.1165 235.221 5.94174C235.394 6.1165 235.568 6.1165 235.916 6.29126L235.568 6.1165C235.916 6.29126 236.263 6.64078 236.61 6.81554C236.61 6.81554 236.784 6.81554 236.784 6.9903C236.784 6.9903 236.784 6.9903 236.61 6.81554L237.305 7.16506L237.132 6.9903C237.305 6.9903 237.479 6.9903 237.653 6.9903C237.132 6.46602 236.089 5.94174 235.916 5.59222C236.437 5.76698 236.784 5.76698 237.479 6.1165C236.784 5.94174 237.653 6.46602 237.479 6.64078C237.653 6.64078 237.826 6.64078 238 6.81554C237.826 6.64078 237.653 6.46602 237.479 6.29126C237.479 5.94174 237.479 5.94174 237.653 5.94174ZM230.878 7.33982C230.878 7.33982 230.878 7.51458 230.878 7.33982C230.878 7.51458 230.878 7.51458 230.878 7.33982ZM235.221 9.43694C234.873 8.91266 235.047 9.26218 235.221 9.26218C235.394 9.26218 235.394 9.6117 235.221 9.43694ZM236.263 6.29126C236.089 6.29126 236.089 6.29126 236.263 6.29126Z" fill="#F8B3A2"/>
<path d="M236.61 6.81563L236.437 6.64087C236.437 6.81563 236.61 6.81563 236.61 6.81563Z" fill="#F8B3A2"/>
<path d="M235.916 0.873735L236.089 0.698975C236.089 0.698975 236.089 0.873735 235.916 0.873735Z" fill="#F8B3A2"/>
<path d="M232.441 0.873779V1.04854H232.615L232.441 0.873779Z" fill="#F8B3A2"/>
<path d="M233.657 0.349565C233.657 0.524325 233.657 0.524325 233.483 0.699085L233.831 0.174805L233.657 0.349565Z" fill="#F8B3A2"/>
<path d="M234.352 0C234.178 0.17476 234.178 0.17476 234.178 0.34952C234.178 0.17476 234.526 0 234.352 0Z" fill="#F8B3A2"/>
<path d="M237.653 2.27188C237.305 2.27188 237.479 2.44664 237.305 2.44664C237.653 2.44664 237.479 2.6214 238.174 2.27188C238.174 2.09712 237.305 2.44664 237.653 2.27188Z" fill="#F8B3A2"/>
<path d="M236.436 9.96138C236.263 9.78662 236.263 9.78662 236.089 9.78662L236.436 9.96138Z" fill="#F8B3A2"/>
<path d="M234.526 10.6603L234.178 10.136L234.526 10.6603Z" fill="#F8B3A2"/>
<path d="M232.788 11.8837L232.962 11.7089C232.962 11.8837 232.788 11.0099 232.788 11.8837Z" fill="#F8B3A2"/>
<path d="M31.2698 2.27197V43.8649H25.7107V6.64098H6.60122V43.8649H1.21582V2.27197H31.2698Z" fill="#EE4043"/>
<path d="M52.6381 40.3696C57.8498 40.3696 61.6717 35.4763 61.6717 28.6606C61.6717 23.5926 59.0659 17.1265 52.8118 17.1265C46.5578 17.1265 43.7783 23.0683 43.7783 28.8354C43.7783 35.4763 47.4264 40.3696 52.6381 40.3696ZM52.2907 44.5638C44.2994 44.5638 38.0454 38.622 38.0454 29.1849C38.0454 19.2236 44.6469 13.2817 52.8118 13.2817C61.3242 13.2817 67.0571 19.5731 67.0571 28.6606C67.2308 39.6705 59.4133 44.5638 52.2907 44.5638Z" fill="#EE4043"/>
<path d="M79.3913 13.8062V26.7384H80.6073L91.7256 13.8062H98.327L85.2978 27.2627C90.1621 27.787 93.1154 31.1074 95.3737 36.3502C96.2424 38.2726 97.111 41.2435 98.5008 43.6901H92.9416C92.073 42.4668 91.2044 40.0202 90.1621 37.5735C88.0774 32.6803 85.2978 30.5831 80.4336 30.5831H79.3913V43.6901H74.0059V13.8062H79.3913Z" fill="#EE4043"/>
<path d="M124.211 42.6414C122.822 43.3404 119.695 44.389 115.699 44.389C106.665 44.389 100.933 38.2724 100.933 29.0101C100.933 19.7478 107.187 13.1069 116.915 13.1069C120.042 13.1069 122.995 13.806 124.385 14.6798L123.169 18.874C121.779 18.175 119.868 17.4759 116.915 17.4759C110.14 17.4759 106.318 22.544 106.318 28.8353C106.318 35.8258 110.661 40.02 116.741 40.02C119.868 40.02 121.779 39.321 123.343 38.6219L124.211 42.6414Z" fill="#EE4043"/>
<path d="M136.025 2.27197V20.7966H137.762L152.007 2.27197H158.435L142.8 21.3208C149.749 22.1946 152.355 26.3889 154.439 32.156C156.003 36.3502 157.219 40.1949 158.956 44.0397H153.223C151.66 41.2435 150.617 37.5735 149.401 34.2531C147.49 28.6608 144.885 24.9908 137.936 24.9908H136.198V44.0397H130.813V2.27197H136.025Z" fill="#231F20"/>
<path d="M187.968 13.8062V43.6901H182.583V18.1752H172.333V25.8646C172.333 34.2531 171.464 39.8454 167.643 42.4668C166.079 43.6901 164.516 44.3892 161.736 44.3892L161.215 40.1949C162.257 40.0202 163.473 39.4959 164.168 38.9716C166.948 36.8745 167.295 32.6802 167.295 26.0394V13.9809L187.968 13.8062Z" fill="#231F20"/>
<path d="M202.039 13.8062H196.654V43.6901H202.039V13.8062Z" fill="#231F20"/>
<path d="M216.285 13.8062V25.8646H230.356V13.8062H235.742V43.8649H230.356V30.2336H216.285V43.8649H210.899V13.8062H216.285Z" fill="#231F20"/>
</svg>
