<svg width="153" height="181" viewBox="0 0 153 181" fill="none" xmlns="http://www.w3.org/2000/svg">
<g clip-path="url(#clip0_778_2224)">
<path d="M76.3712 42.071C107.874 42.071 133.65 68.5383 133.65 101.326C133.65 134.114 108.065 160.581 76.3712 160.581C44.6771 160.581 19.0928 134.114 19.0928 101.326C19.0928 68.5383 44.6771 42.071 76.3712 42.071ZM76.3712 22.3193C34.1761 22.3193 0 57.6749 0 101.326C0 144.977 34.1761 180.333 76.3712 180.333C118.566 180.333 152.742 144.977 152.742 101.326C152.742 57.6749 118.375 22.3193 76.3712 22.3193Z" fill="#F7941D"/>
<path d="M37.9947 105.474H31.3122C29.0211 105.474 27.3027 103.696 27.3027 101.326C27.3027 98.9559 29.0211 97.1782 31.3122 97.1782H37.9947C40.2858 97.1782 42.0042 98.9559 42.0042 101.326C42.0042 103.696 40.2858 105.474 37.9947 105.474Z" fill="#F7941D"/>
<path d="M121.239 105.474H114.557C112.266 105.474 110.547 103.696 110.547 101.326C110.547 98.9559 112.266 97.1782 114.557 97.1782H121.239C123.53 97.1782 125.249 98.9559 125.249 101.326C125.249 103.696 123.34 105.474 121.239 105.474Z" fill="#F7941D"/>
<path d="M46.3956 76.2416L41.8133 71.5012C40.2859 69.9211 40.2859 67.1559 41.8133 65.5757C43.3407 63.9956 46.0137 63.9956 47.5411 65.5757L52.1234 70.3161C53.6508 71.8963 53.6508 74.6615 52.1234 76.2416C50.596 77.8218 47.923 77.8218 46.3956 76.2416Z" fill="#F7941D"/>
<path d="M105.201 137.077L100.428 132.336C98.9009 130.756 98.9009 127.991 100.428 126.411C101.956 124.831 104.629 124.831 106.156 126.411L110.738 131.151C112.266 132.731 112.266 135.497 110.738 137.077C109.402 138.657 106.729 138.657 105.201 137.077Z" fill="#F7941D"/>
<path d="M72.3616 61.8229V54.9098C72.3616 52.5396 74.0799 50.762 76.3711 50.762C78.6622 50.762 80.3805 52.5396 80.3805 54.9098V61.8229C80.3805 64.1931 78.6622 65.9708 76.3711 65.9708C74.0799 65.9708 72.3616 63.9956 72.3616 61.8229Z" fill="#F7941D"/>
<path d="M72.3616 147.743V138.854C72.3616 136.484 74.0799 134.707 76.3711 134.707C78.6622 134.707 80.3805 136.484 80.3805 138.854V147.743C80.3805 150.113 78.6622 151.891 76.3711 151.891C74.0799 151.891 72.3616 150.113 72.3616 147.743Z" fill="#F7941D"/>
<path d="M100.428 70.3161L105.01 65.5757C106.538 63.9956 109.211 63.9956 110.738 65.5757C112.266 67.1559 112.266 69.9211 110.738 71.5012L106.156 76.2416C104.628 77.8218 101.955 77.8218 100.428 76.2416C98.9006 74.6615 98.9006 72.0938 100.428 70.3161Z" fill="#F7941D"/>
<path d="M41.8132 131.151L46.3954 126.411C47.9229 124.831 50.5959 124.831 52.1233 126.411C53.6507 127.991 53.6507 130.756 52.1233 132.336L47.541 137.077C46.0136 138.657 43.3406 138.657 41.8132 137.077C40.0948 135.497 40.0948 132.731 41.8132 131.151Z" fill="#F7941D"/>
<path d="M76.3711 29.2324V101.326L134.604 61.2302C134.604 61.2302 104.247 30.8126 76.3711 29.2324Z" fill="#F7941D"/>
<path d="M95.8459 27.6524H53.269C45.8228 27.6524 39.9041 21.5293 39.9041 13.8262C39.9041 6.12302 45.8228 0 53.269 0L95.8459 0C103.292 0 109.211 6.12302 109.211 13.8262C109.211 21.5293 103.292 27.6524 95.8459 27.6524Z" fill="#F7941D"/>
</g>
<defs>
<clipPath id="clip0_778_2224">
<rect width="152.551" height="180.333" fill="white"/>
</clipPath>
</defs>
</svg>
