<svg width="64" height="47" viewBox="0 0 64 47" fill="none" xmlns="http://www.w3.org/2000/svg">
<path d="M59.7845 9.65236C59.4713 8.40119 58.8335 7.25481 57.9355 6.32903C57.0375 5.40324 55.911 4.73083 54.67 4.37972C50.1355 3.27246 31.9976 3.27246 31.9976 3.27246C31.9976 3.27246 13.8597 3.27246 9.32526 4.48517C8.0842 4.83629 6.95778 5.5087 6.05977 6.43448C5.16176 7.36027 4.52396 8.50664 4.2108 9.75781C3.38092 14.3597 2.97498 19.0279 2.99809 23.704C2.96851 28.4152 3.37447 33.119 4.2108 37.7555C4.55605 38.9678 5.20813 40.0706 6.10406 40.9573C6.99998 41.844 8.10944 42.4846 9.32526 42.8173C13.8597 44.03 31.9976 44.03 31.9976 44.03C31.9976 44.03 50.1355 44.03 54.67 42.8173C55.911 42.4662 57.0375 41.7938 57.9355 40.868C58.8335 39.9422 59.4713 38.7958 59.7845 37.5446C60.6079 32.9774 61.0138 28.3448 60.9972 23.704C61.0267 18.9927 60.6208 14.2889 59.7845 9.65236V9.65236Z" stroke="#EB2027" stroke-width="5" stroke-linecap="round" stroke-linejoin="round"/>
<path d="M26.0659 32.3248L41.2248 23.704L26.0659 15.0833V32.3248Z" stroke="#EB2027" stroke-width="5" stroke-linecap="round" stroke-linejoin="round"/>
</svg>
